<?xml version="1.0" encoding="utf-8"?>
<!-- Generator: Adobe Illustrator 27.5.0, SVG Export Plug-In . SVG Version: 6.00 Build 0)  -->
<svg version="1.1" xmlns="http://www.w3.org/2000/svg" xmlns:xlink="http://www.w3.org/1999/xlink" x="0px" y="0px"
	 viewBox="0 0 500 500" style="enable-background:new 0 0 500 500;" xml:space="preserve">
<g id="Flag">
	<g id="Flag_00000078766224003986721920000001851229478599196551_">
		<g>
			<path style="fill:#455A64;" d="M323.104,54.827l0.116,160.764c0.024,1.127-2.904,1.183-2.947,0.022l-0.115-160.481
				L323.104,54.827z"/>
			<path style="fill:#37474F;" d="M319.684,55.396c0.229,1.07,1.283,1.753,2.354,1.523c1.071-0.229,1.753-1.283,1.524-2.354
				c-0.229-1.071-1.283-1.753-2.354-1.524C320.137,53.271,319.455,54.325,319.684,55.396z"/>
		</g>
		<g>
			<path style="fill:#BA68C8;" d="M323.119,56.239c9.074,10.82,21.941,5.99,32.554,5.356c11.499-0.688,18.495,3.024,21.981,8.069
				c-3.319-0.883-12.635-0.044-15.572,2.39c0,0,11.717,7.658,11.73,20.205c-3.409-5.315-9.34-9.318-20.818-6.96
				c-10.081,2.072-22.842,6.709-29.842-1.051L323.119,56.239z"/>
			<path style="opacity:0.1;" d="M334.321,84.266c9.264,2.809,34.515-9.505,39.492,7.991c-3.409-5.315-9.34-9.318-20.818-6.96
				c-10.081,2.072-22.842,6.709-29.842-1.051l-0.034-28.007C323.159,67.262,325.057,81.457,334.321,84.266z"/>
			<path style="fill:#FFFFFF;" d="M341.904,66.893l-1.592,4.844l-5.053,0.681c-0.303,0.041-0.402,0.431-0.155,0.612l4.115,3.011
				l-0.914,5.017c-0.055,0.301,0.285,0.516,0.534,0.337l4.135-2.983l4.489,2.419c0.27,0.145,0.579-0.112,0.485-0.404l-1.559-4.855
				l3.688-3.521c0.221-0.211,0.073-0.585-0.234-0.586l-5.099-0.017l-2.21-4.595C342.401,66.575,342,66.602,341.904,66.893z"/>
		</g>
	</g>
</g>
<g id="Floor">
	<g id="Floor_5_">
		<g id="Floor_1_">
			<ellipse id="Grass" style="fill:#E6E6E6;" cx="252.022" cy="337.969" rx="233.099" ry="133.974"/>
		</g>
		<path style="fill:#FFFFFF;" d="M276.576,396.246c-28.278,16.442-71.972,40.42-82.379,51.348
			c-7.187,7.546-11.864,13.243-14.904,17.686c59.092,11.122,124.383,8.311,180.339-8.432
			c86.667-60.595,40.953-102.564,15.123-120.968c-19.773-14.088-34.852-23.308-44.181-31.646
			c-11.082-9.905-10.192-18.571,6.66-30.019c21.845-14.84,31.871-26.263,19.444-43.028c-5.825-7.858-14.713-14.131-24.608-19.067
			c-9.043-1.896-18.246-3.46-27.558-4.691c6.851,3.305,13.644,7.432,20.544,12.965c18.382,14.74,6.517,24.445-13.132,36.181
			c-12.271,7.329-22.632,13.775-27.34,18.215c-15.979,15.07-6.927,30.795,10.74,45.952c6.101,5.234,15.183,11.573,18.033,24.049
			C316.609,359.031,310.799,376.347,276.576,396.246z"/>
	</g>
</g>
<g id="Clouds">
	<path id="Cloud_3_" style="fill:#F0F0F0;" d="M271.926,79.189c-1.273-0.577-2.788-0.63-3.883-0.717
		c-1.257-0.099-1.655-0.348-1.897-0.62c-3.057-4.375-8.111-4.542-11.127-3.288c-0.739-3.01-4.381-5.623-8.391-4.743
		c0.137-3.911-4.857-8.114-9.344-9.069c-4.303-0.916-8.055-0.531-10.51,2.298c-2.628-5.133-12.932-6.579-18.507-3.864
		c-3.206,1.562-5.926,3.164-7.256,6.102c-0.878,1.939-1.191,3.231-1.207,5.841c-2.173-1.915-6.524-2.433-9.426-1.311
		c-3.129,1.21-3.367,3.569-3.521,5.968c-3.068-0.773-5.12-0.273-5.696-0.103c-1.971,0.584-3.108,2.132-2.837,3.382
		c-1.559-0.087-5.275,1.174-4.848,2.821c0.48,1.848,4.723,1.662,6.308,1.603c1.312-0.048,3.011-0.4,4.437-0.697
		c0.433,0.214,1.583,0.443,2.307,0.438c2.702-0.019,3.846-1.177,4.28-2.183c1.319,2.777,6.012,4.892,9.329,5.741
		c6.247,1.599,15.087,0.625,18.934-4.045c0.403,0.84,1.078,1.622,1.861,2.267c1.527,1.257,3.588,2.137,5.78,2.342
		c2.565,0.24,9.451,0.569,11.391-3.51c1.374,2.712,7.503,3.948,12.165,3.285c1.743-0.247,3.7-0.852,5.219-1.575
		c1.224-0.583,1.92-1.151,3-1.799c0.919-0.551,1.333-0.545,2.558-0.175c3.199,0.964,6.912,1.359,10.177-0.011
		C273.826,82.478,274.37,80.297,271.926,79.189z"/>
	<path id="Cloud_4_" style="fill:#F5F5F5;" d="M455.516,126.269c-0.983-0.446-2.153-0.487-2.997-0.553
		c-0.97-0.077-1.278-0.269-1.465-0.479c-2.36-3.377-6.262-3.507-8.59-2.538c-0.571-2.324-3.382-4.341-6.478-3.662
		c0.106-3.019-3.75-6.264-7.214-7.002c-3.322-0.707-6.219-0.41-8.114,1.774c-2.029-3.963-9.983-5.079-14.288-2.983
		c-2.475,1.206-4.575,2.443-5.602,4.711c-0.677,1.497-0.92,2.494-0.932,4.509c-1.677-1.479-5.037-1.878-7.277-1.012
		c-2.415,0.934-2.599,2.755-2.718,4.607c-2.368-0.597-3.953-0.211-4.397-0.079c-1.522,0.451-2.399,1.646-2.19,2.611
		c-1.204-0.067-4.073,0.906-3.743,2.178c0.37,1.427,3.646,1.283,4.87,1.238c1.013-0.037,2.325-0.309,3.425-0.538
		c0.335,0.165,1.223,0.342,1.781,0.338c2.086-0.015,2.969-0.909,3.304-1.685c1.018,2.144,4.641,3.777,7.202,4.432
		c4.823,1.235,11.647,0.482,14.618-3.123c0.311,0.649,0.833,1.252,1.437,1.75c1.179,0.971,2.77,1.65,4.462,1.808
		c1.98,0.185,7.296,0.439,8.794-2.71c1.061,2.094,5.793,3.048,9.391,2.536c1.346-0.191,2.857-0.658,4.029-1.216
		c0.945-0.45,1.482-0.888,2.316-1.389c0.709-0.426,1.029-0.421,1.975-0.135c2.47,0.745,5.336,1.049,7.857-0.008
		C456.982,128.808,457.402,127.123,455.516,126.269z"/>
</g>
<g id="Shadows">
	
		<ellipse id="Shadow_00000163756986976653486300000017798170297978578825_" style="opacity:0.15;" cx="132.448" cy="386.302" rx="62.521" ry="36.096"/>
	<path id="Shadow_00000059271575070837824850000004010451705625877681_" style="opacity:0.15;" d="M386.694,278.942l-43.819,25.283
		l14.293,8.252c-0.148,0.076-0.298,0.148-0.44,0.23c-3.838,2.216-3.838,5.808,0,8.023c3.838,2.216,10.06,2.216,13.897,0
		c0.142-0.082,0.267-0.169,0.398-0.254l15.67,9.047l43.819-25.298L386.694,278.942z"/>
	<path id="Shadow_00000180350680771036396020000003677528231852374184_" style="opacity:0.15;" d="M307.895,350.271L262.639,376.4
		c-1.955,1.129-5.369,0.987-7.626-0.316l-64.617-37.307c-2.257-1.303-2.502-3.275-0.548-4.403l45.256-26.129
		c1.955-1.129,5.369-0.987,7.627,0.316l64.617,37.307C309.605,347.171,309.85,349.142,307.895,350.271z"/>
	<path id="Shadow_00000054964051675760059720000001350580606258474170_" style="opacity:0.15;" d="M299.274,462.006
		c-1.511,0-2.958-0.355-4.076-1l-3.065-1.77c-1.365-0.789-2.148-1.952-2.148-3.193c0-1.24,0.783-2.403,2.148-3.191
		c0,0,40.42-23.399,40.426-23.402c-3.605-3.999-5.207-8.501-4.643-13.11c0.718-5.875,5.016-11.362,12.104-15.455
		c7.674-4.43,17.851-6.87,28.658-6.87c10.806,0,20.984,2.44,28.658,6.87c7.877,4.547,12.214,10.664,12.214,17.224
		s-4.337,12.677-12.214,17.225c-7.673,4.429-17.848,6.869-28.65,6.869c-0.001,0-0.002,0-0.003,0c-10.409,0-20.25-2.269-27.818-6.398
		l-37.021,24.95C302.608,461.565,300.989,462.006,299.274,462.006z"/>
	<path id="Shadow_85_" style="opacity:0.15;" d="M246.387,379.972c-0.637,1.728-2.479,2.8-5.552,3.205l-53.133-30.992l-5.694-5.768
		c-0.327-0.33,0.012-0.877,0.454-0.73l10.48,3.473L246.387,379.972z"/>
	<path id="Shadow_00000120561061995019655470000013129299348467566480_" style="opacity:0.15;" d="M267.902,214.085l34.487,19.892
		c1.347,0.778,3.7,0.68,5.255-0.218l6.454-3.727c1.555-0.898,1.724-2.257,0.377-3.034l-34.487-19.892
		c-1.347-0.778-3.7-0.68-5.255,0.218l-6.454,3.727C266.724,211.949,266.555,213.307,267.902,214.085z"/>
</g>
<g id="Briefcase">
	<g id="Briefcase_00000163756611352544779020000001653648523019086733_">
		<g id="Briefcase_00000065794697544464738100000012657894410315317927_">
			<g id="XMLID_00000010280150778065949500000013536317005577599156_">
				<g id="XMLID_00000021840389712635892210000013134472669171626171_">
					<path id="XMLID_00000027572112474608084040000009359645374762862755_" style="fill:#37474F;" d="M309.529,200.95l0.087,25.625
						c0.004,1.242-0.872,1.963-1.944,2.599l-2.69,1.567c-0.743,0.433-1.157,0.58-2.103,0.421c-0.414-0.066-1.11-0.401-1.441-0.585
						c-0.022-0.005-0.039-0.017-0.056-0.028l-0.146-0.083l-27.597-15.809c-2.017-1.155-3.264-3.298-3.272-5.622l-0.08-23.333
						c-0.002-0.532,0.371-1.182,0.834-1.452l4.59-2.668c0.458-0.27,1.208-0.273,1.667-0.006l31.305,17.933
						c0.235,0.128,0.443,0.362,0.595,0.619C309.432,200.39,309.529,200.687,309.529,200.95z"/>
					<path id="XMLID_00000008109269628349981950000011661200906941804699_" style="fill:#263238;" d="M309.529,200.95l0.087,25.625
						c0.004,1.242-0.872,1.963-1.944,2.599l-2.69,1.567c-0.743,0.433-1.157,0.58-2.103,0.421c-0.414-0.066-1.11-0.401-1.441-0.585
						v-0.011c1.076,0.5,1.919-0.063,1.915-1.333l-0.082-24.144c-0.001-0.403-0.143-0.85-0.374-1.246l6.383-3.715
						C309.432,200.39,309.529,200.687,309.529,200.95z"/>
				</g>
				<path id="XMLID_00000003094895470776911400000002863888216380858783_" style="fill:#455A64;" d="M303.272,205.089
					c-0.003-0.803-0.575-1.787-1.272-2.186l-29.588-16.949c-1.169-0.67-2.123-0.115-2.118,1.232l0.072,21.845
					c0.008,2.324,1.255,4.468,3.271,5.623l27.599,15.811c1.169,0.67,2.123,0.115,2.118-1.232L303.272,205.089z"/>
				<g>
					<path style="fill:#BA68C8;" d="M274.224,182.446l31.361,18.144c0.898,0.52,1.458,1.486,1.462,2.523l0.09,26.372l-0.476,0.277
						l-0.09-26.648c-0.003-0.868-0.472-1.677-1.224-2.112l-31.597-18.28L274.224,182.446z"/>
					<path style="opacity:0.2;" d="M306.652,201.657c0.253,0.436,0.394,0.937,0.395,1.456l0.09,26.372l-0.476,0.277l-0.09-26.648
						c-0.001-0.434-0.119-0.853-0.33-1.217L306.652,201.657z"/>
					<path style="opacity:0.2;" d="M306.24,201.897c-0.212-0.366-0.517-0.677-0.893-0.895l-31.597-18.28l0.475-0.276l31.361,18.144
						c0.449,0.26,0.814,0.631,1.066,1.068"/>
				</g>
			</g>
			<g id="XMLID_00000080885655500878843580000007747084119415695511_">
				<path id="XMLID_00000145739170441787942400000006693391436215593108_" style="fill:#BA68C8;" d="M285.353,185.683l0.013,3.968
					l-1.549,0.902l-0.018-5.269c-0.001-0.273,0.188-0.381,0.424-0.247L285.353,185.683z"/>
				<path id="XMLID_00000126282335525994046120000013021741852556269497_" style="opacity:0.4;" d="M285.353,185.683l0.013,3.968
					l-1.549,0.902l-0.018-5.269c-0.001-0.273,0.188-0.381,0.424-0.247L285.353,185.683z"/>
				<path id="XMLID_00000013903621021748918000000005227217815140671622_" style="fill:#BA68C8;" d="M296.272,189.567l0.022,6.424
					l-1.478,0.863l-0.999-0.574l-0.018-5.269c-0.001-0.27-0.194-0.601-0.428-0.736l-7.574-4.337l-1.573-0.901
					c-0.236-0.134-0.425-0.026-0.424,0.247l0.018,5.269l-1.002-0.574l-0.022-6.421c0-0.027,0.002-0.057,0.007-0.084
					c0.031-0.253,0.207-0.534,0.418-0.655l0.63-0.368c0.233-0.136,0.614-0.137,0.85-0.003l11.145,6.384
					C296.081,188.968,296.271,189.297,296.272,189.567z"/>
				<path id="XMLID_00000148627024761702382920000014030874442933110436_" style="opacity:0.2;" d="M294.794,190.43l0.022,6.424
					l-0.999-0.574l-0.018-5.269c-0.001-0.27-0.194-0.601-0.428-0.736l-7.574-4.337l-1.573-0.901
					c-0.236-0.134-0.425-0.026-0.424,0.247l0.018,5.269l-1.002-0.574l-0.022-6.421c0-0.027,0.002-0.057,0.007-0.084
					c0.036-0.209,0.211-0.283,0.42-0.163l11.145,6.384C294.6,189.831,294.793,190.159,294.794,190.43z"/>
			</g>
		</g>
	</g>
</g>
<g id="Graduation_Cap">
	<g id="Graduation_Cap_00000183237681830525602560000013386037675556653743_">
		<g id="XMLID_00000031174938770076281990000008005374473353724545_">
			<path style="fill:#37474F;" d="M358.809,282.896v21.638c0.015,3.118,2.736,6.232,8.169,8.61c10.89,4.766,28.547,4.766,39.438,0
				c5.448-2.388,8.164-5.511,8.164-8.635v-21.614h-0.005c0.064-3.163-2.653-6.33-8.159-8.743c-10.891-4.766-28.547-4.766-39.438,0
				c-5.511,2.412-8.228,5.58-8.164,8.743H358.809z"/>
			<path style="fill:#263238;" d="M358.814,282.896c-0.064-3.163,2.653-6.33,8.164-8.743c10.89-4.766,28.547-4.766,39.438,0
				c5.506,2.412,8.223,5.58,8.159,8.743h0.005v13.809c0-5.978-1.976-5.491-8.418-1.841c-9.785,5.544-16.86,11.569-27.627,14.742
				c-8.903,2.623-16.597-3.572-19.726-6.844v-19.865H358.814z"/>
			<g id="XMLID_00000165233111046579561220000011631145076182517636_">
				<path style="fill:#BA68C8;" d="M358.809,294.348v2.454c0.015,3.114,2.736,6.232,8.169,8.605c10.89,4.771,28.547,4.771,39.438,0
					c5.487-2.398,8.203-5.555,8.164-8.703v-2.381c0,3.124-2.716,6.247-8.164,8.635c-10.891,4.766-28.547,4.766-39.438,0
					C361.545,300.58,358.824,297.467,358.809,294.348z"/>
			</g>
		</g>
		<g>
			<polygon style="fill:#37474F;" points="430.512,275.485 386.693,250.202 342.875,275.485 342.875,278.935 386.693,304.233 
				430.512,278.935 			"/>
			<polygon style="opacity:0.2;fill:#FFFFFF;" points="386.693,304.233 386.693,300.783 430.512,275.485 430.512,278.935 			"/>
			<polygon style="opacity:0.2;fill:#FFFFFF;" points="386.693,300.783 429.884,276.508 430.512,278.935 430.512,275.485 			"/>
			<polygon style="fill:#455A64;" points="386.694,250.202 342.875,275.485 386.693,300.783 430.512,275.485 			"/>
		</g>
		<g>
			<g>
				<path style="fill:#BA68C8;" d="M363.201,295.187c-0.006-0.286-0.139-7.015,0.516-8.926c0.656-1.914,3.154-3.856,8.351-6.493
					c5.775-2.931,11.083-4.175,11.669-4.307l0.216,0.957c-0.574,0.13-5.771,1.348-11.441,4.225
					c-4.882,2.478-7.309,4.309-7.867,5.937c-0.497,1.45-0.503,6.69-0.463,8.587L363.201,295.187z"/>
				<path style="opacity:0.8;fill:#FFFFFF;" d="M363.201,295.187c-0.006-0.286-0.139-7.015,0.516-8.926
					c0.656-1.914,3.154-3.856,8.351-6.493c5.775-2.931,11.083-4.175,11.669-4.307l0.216,0.957c-0.574,0.13-5.771,1.348-11.441,4.225
					c-4.882,2.478-7.309,4.309-7.867,5.937c-0.497,1.45-0.503,6.69-0.463,8.587L363.201,295.187z"/>
			</g>
			<g>
				<g>
					<path style="fill:#BA68C8;" d="M368.893,315.759c0-5.039-0.836-14.056-3.475-16.674h-3.483
						c-2.639,2.619-3.475,11.636-3.475,16.674l0,0l0,0c0,0.771,0.509,1.542,1.528,2.13c1.018,0.588,2.354,0.882,3.689,0.882
						s2.67-0.294,3.689-0.882C368.384,317.301,368.893,316.53,368.893,315.759L368.893,315.759L368.893,315.759z"/>
					<path style="opacity:0.5;fill:#FFFFFF;" d="M368.893,315.759c0-5.039-0.836-14.056-3.475-16.674h-3.483
						c-2.639,2.619-3.475,11.636-3.475,16.674l0,0l0,0c0,0.771,0.509,1.542,1.528,2.13c1.018,0.588,2.354,0.882,3.689,0.882
						s2.67-0.294,3.689-0.882C368.384,317.301,368.893,316.53,368.893,315.759L368.893,315.759L368.893,315.759z"/>
					<path style="opacity:0.6;fill:#BA68C8;" d="M361.935,299.085c-0.199,0.197-0.386,0.434-0.564,0.699
						c0.664,0.704,1.684,0.883,2.703,0.965c0.937,0.075,2.072,0.903,2.523,5.034c0.451,4.131,1.329,9.408-0.308,11.005
						c-1.637,1.597-5.292,1.585-7.211,0.393l0,0c0.236,0.254,0.538,0.493,0.909,0.708c1.018,0.588,2.354,0.882,3.689,0.882
						s2.67-0.294,3.689-0.882c1.019-0.588,1.528-1.359,1.528-2.13l0,0c0-5.039-0.836-14.056-3.475-16.674H361.935z"/>
				</g>
				<g>
					<path style="fill:#BA68C8;" d="M366.29,297.247c0,1.443-1.17,2.613-2.613,2.613s-2.613-1.17-2.613-2.613
						c0-1.443,1.17-2.613,2.613-2.613S366.29,295.804,366.29,297.247z"/>
					<path style="opacity:0.5;fill:#FFFFFF;" d="M366.29,297.247c0,1.443-1.17,2.613-2.613,2.613s-2.613-1.17-2.613-2.613
						c0-1.443,1.17-2.613,2.613-2.613S366.29,295.804,366.29,297.247z"/>
					<path style="opacity:0.4;fill:#BA68C8;" d="M365.196,295.129c0.652,0.688,0.75,2.489-0.635,3.397
						c-1.379,0.903-2.817,0.2-3.365-0.497c0.333,1.059,1.312,1.833,2.481,1.833c1.443,0,2.613-1.17,2.613-2.613
						C366.29,296.373,365.856,295.603,365.196,295.129z"/>
				</g>
			</g>
		</g>
		<g>
			<path style="fill:#263238;" d="M383.173,274.214c0-0.52,0.344-1.04,1.031-1.438c1.375-0.794,3.604-0.794,4.979,0
				c0.687,0.397,1.031,0.917,1.031,1.438c0,0.194,0,0.956,0,1.15c0,0.52-0.344,1.04-1.031,1.437c-1.375,0.794-3.604,0.794-4.979,0
				c-0.688-0.397-1.031-0.917-1.031-1.437C383.173,275.17,383.173,274.408,383.173,274.214z"/>
			<path style="fill:#37474F;" d="M389.183,275.651c1.375-0.794,1.375-2.081,0-2.875c-1.375-0.794-3.604-0.794-4.979,0
				c-1.375,0.794-1.375,2.081,0,2.875C385.579,276.445,387.808,276.445,389.183,275.651z"/>
		</g>
	</g>
</g>
<g id="Books">
	<g id="Books_2_">
		<g id="Book_5_">
			<g id="XMLID_00000140006408568617040390000002970686705949155202_">
				<polygon style="fill:#BA68C8;" points="299.04,348.609 259.33,371.032 198.348,336.039 238.055,313.613 				"/>
				<polygon style="opacity:0.6;" points="299.04,348.609 259.33,371.032 198.348,336.039 238.055,313.613 				"/>
			</g>
			<path style="fill:#F5F5F5;" d="M258.899,369.393l38.372-21.799c-0.953-2.705-0.882-3.526,0.197-7.127l-38.139,21.578
				C259.33,362.044,258.637,361.993,258.899,369.393z"/>
			<g id="XMLID_00000010279980798249944980000006541708384457738665_">
				<path style="fill:#BA68C8;" d="M261.191,359.088c-1.936,1.111-3.505,3.813-3.506,6.036v4.716c0,2.223,1.57,3.124,3.506,2.013
					l37.844-21.497l0.005-1.747l-37.365,21.092c-1.162,0.667-2.102,0.126-2.101-1.207l0.033-4.199
					c0.001-1.333,0.944-2.955,2.106-3.622l37.322-21.101v-1.98L261.191,359.088z"/>
				<path style="opacity:0.5;" d="M261.191,359.088c-1.936,1.111-3.505,3.813-3.506,6.036v4.716c0,2.223,1.57,3.124,3.506,2.013
					l37.844-21.497l0.005-1.747l-37.365,21.092c-1.162,0.667-2.102,0.126-2.101-1.207l0.033-4.199
					c0.001-1.333,0.944-2.955,2.106-3.622l37.322-21.101v-1.98L261.191,359.088z"/>
			</g>
			<g id="XMLID_5495_">
				<path style="fill:#BA68C8;" d="M299.036,337.595l-60.983-34.994l-37.842,21.495c-1.935,1.111-3.506,3.815-3.506,6.036
					l-0.001,4.717c0.002,1.107,0.39,1.888,1.028,2.254l60.982,34.994c-0.638-0.366-1.026-1.146-1.028-2.253l-0.005-4.721
					c0-2.221,1.57-4.925,3.505-6.036L299.036,337.595z"/>
				<path style="opacity:0.35;" d="M299.036,337.595l-60.983-34.994l-37.842,21.495c-1.935,1.111-3.506,3.815-3.506,6.036
					l-0.001,4.717c0.002,1.107,0.39,1.888,1.028,2.254l60.982,34.994c-0.638-0.366-1.026-1.146-1.028-2.253l-0.005-4.721
					c0-2.221,1.57-4.925,3.505-6.036L299.036,337.595z"/>
			</g>
			<g id="XMLID_5492_">
				<path style="fill:#BA68C8;" d="M258.709,361.688c-0.634,1.093-1.026,2.324-1.026,3.434l0.005,4.721
					c0.002,1.107,0.39,1.887,1.028,2.253l-60.982-34.994c-0.638-0.366-1.026-1.147-1.028-2.254l0.001-4.717
					c0-1.111,0.393-2.341,1.027-3.434L258.709,361.688z"/>
				<path style="opacity:0.45;" d="M258.709,361.688c-0.634,1.093-1.026,2.324-1.026,3.434l0.005,4.721
					c0.002,1.107,0.39,1.887,1.028,2.253l-60.982-34.994c-0.638-0.366-1.026-1.147-1.028-2.254l0.001-4.717
					c0-1.111,0.393-2.341,1.027-3.434L258.709,361.688z"/>
			</g>
			<g>
				<path style="fill:#BA68C8;" d="M205.97,331.374c-1.136,4.936-1.12,6.864,0,10.484l2.903,1.676c-1.12-3.62-1.136-5.548,0-10.484
					L205.97,331.374z"/>
				<path style="fill:#BA68C8;" d="M245.968,354.358c-1.136,4.935-1.12,6.801,0,10.421l2.903,1.676c-1.12-3.62-1.136-5.486,0-10.421
					L245.968,354.358z"/>
			</g>
		</g>
		<g id="Book_00000088104689623659904680000012111616217965073322_">
			<g id="XMLID_00000033345955384027207160000014862603617956596865_">
				<polygon style="fill:#BA68C8;" points="306.174,338.036 266.464,360.46 205.482,325.466 245.189,303.04 				"/>
				<polygon style="opacity:0.4;" points="306.174,338.036 266.464,360.46 205.482,325.466 245.189,303.04 				"/>
			</g>
			<g id="XMLID_00000132069864969793351320000002426952871111116716_">
				<path style="fill:#F5F5F5;" d="M266.033,358.82l38.372-21.799c-0.953-2.705-0.881-3.916,0.197-7.517l-38.139,21.578
					C266.464,351.082,265.771,351.42,266.033,358.82z"/>
			</g>
			<g id="XMLID_00000057848708472413317590000015856361960177204147_">
				<path style="fill:#BA68C8;" d="M268.326,348.126c-1.936,1.111-3.506,3.814-3.506,6.036v5.105c0,2.223,1.57,3.124,3.506,2.013
					l37.844-21.497l0.004-1.747l-37.365,21.092c-1.162,0.667-2.102,0.126-2.101-1.208l0.033-4.588
					c0.001-1.333,0.944-2.955,2.106-3.622l37.323-21.101v-1.98L268.326,348.126z"/>
				<path style="opacity:0.25;" d="M268.326,348.126c-1.936,1.111-3.506,3.814-3.506,6.036v5.105c0,2.223,1.57,3.124,3.506,2.013
					l37.844-21.497l0.004-1.747l-37.365,21.092c-1.162,0.667-2.102,0.126-2.101-1.208l0.033-4.588
					c0.001-1.333,0.944-2.955,2.106-3.622l37.323-21.101v-1.98L268.326,348.126z"/>
			</g>
			<path style="fill:#BA68C8;" d="M306.171,326.633l-60.982-34.994l-37.842,21.495c-1.935,1.111-3.506,3.815-3.506,6.036
				l-0.001,5.106c0.002,1.107,0.391,1.887,1.028,2.253l60.982,34.994c-0.638-0.366-1.026-1.146-1.028-2.253l-0.005-5.111
				c0-2.221,1.57-4.925,3.505-6.036L306.171,326.633z"/>
			<g id="XMLID_00000045617369936396671520000005804934168784601733_">
				<path style="fill:#BA68C8;" d="M265.843,350.726c-0.634,1.093-1.027,2.324-1.027,3.434l0.005,5.111
					c0.002,1.107,0.39,1.887,1.028,2.253l-60.982-34.994c-0.638-0.366-1.026-1.146-1.028-2.253l0.001-5.106
					c0-1.111,0.393-2.341,1.027-3.434L265.843,350.726z"/>
				<path style="opacity:0.15;" d="M265.843,350.726c-0.634,1.093-1.027,2.324-1.027,3.434l0.005,5.111
					c0.002,1.107,0.39,1.887,1.028,2.253l-60.982-34.994c-0.638-0.366-1.026-1.146-1.028-2.253l0.001-5.106
					c0-1.111,0.393-2.341,1.027-3.434L265.843,350.726z"/>
			</g>
			<g>
				<path style="fill:#BA68C8;" d="M213.105,320.413c-1.136,4.936-1.12,7.253,0,10.873l2.903,1.676
					c-1.12-3.619-1.136-5.937,0.001-10.873L213.105,320.413z"/>
				<path style="fill:#BA68C8;" d="M253.102,343.425c-1.136,4.935-1.12,7.171,0,10.791l2.903,1.676c-1.12-3.62-1.136-5.87,0-10.805
					L253.102,343.425z"/>
			</g>
			<g style="opacity:0.4;">
				<path style="fill:#FFFFFF;" d="M213.105,320.413c-1.136,4.936-1.12,7.253,0,10.873l2.903,1.676
					c-1.12-3.619-1.136-5.937,0.001-10.873L213.105,320.413z"/>
				<path style="fill:#FFFFFF;" d="M253.102,343.425c-1.136,4.935-1.12,7.171,0,10.791l2.903,1.676c-1.12-3.62-1.136-5.87,0-10.805
					L253.102,343.425z"/>
			</g>
		</g>
		<g id="Book_00000140695414036411305030000001229296702229300611_">
			<path id="XMLID_00000035515919232569354330000014260145225617065132_" style="fill:#BA68C8;" d="M300.813,319.57l-1.698-0.906
				l1.546-0.37C300.977,318.652,300.996,319.086,300.813,319.57z"/>
			<path id="XMLID_00000081649650036769646060000005881996553778065077_" style="opacity:0.5;" d="M300.813,319.57l-1.698-0.906
				l1.546-0.37C300.977,318.652,300.996,319.086,300.813,319.57z"/>
			<g id="XMLID_00000177448935587232409690000003768612311162653066_">
				<path id="XMLID_00000150802035877070532750000010316665636617635479_" style="fill:#37474F;" d="M255.844,342.217
					c0.953,0.551,2.499,0.551,3.452,0l38.755-22.376l-58.014-32.954l-1.355-0.784l-38.753,21.832c-0.95,0.551-0.95,1.448,0,1.993
					L255.844,342.217z"/>
				<path id="XMLID_00000069392686743306529860000002520298264463002537_" d="M270.395,300.492l13.515,7.779l8.749-5.051
					l10.177,5.88c0,0,0,5.902,0,6.791c0,0.889-0.997,2.156-1.359,1.947c0,0-0.797,0.163-1.946,0.69
					c-1.149,0.528-2.809,2.078-2.809,2.078l-31.054-17.385L270.395,300.492z"/>
				<path style="fill:#37474F;" d="M297.252,309.916v7.372c0.041-0.03,0.082-0.052,0.119-0.074c0.413-0.238,1.03-0.517,1.655-0.517
					c0.428,0,0.799,0.033,1.09,0.256v-8.692L297.252,309.916z"/>
				<path style="fill:#E0E0E0;" d="M295.352,319.821c0.015-0.439,0.201-0.87,0.487-1.257c0.138-0.193,0.301-0.375,0.476-0.547
					c0.052-0.052,0.108-0.104,0.164-0.156c0.071-0.059,0.141-0.119,0.212-0.178c0.059-0.045,0.119-0.09,0.179-0.134
					c0.126-0.093,0.256-0.178,0.383-0.256v-7.342l-1.893,1.097v-0.037L295.352,319.821z"/>
			</g>
			<path id="XMLID_00000152943238773521112630000015475980841896766346_" style="fill:#EBEBEB;" d="M257.57,332.827v8.412
				c0.419,0,0.837-0.086,1.149-0.272l4.252-2.452l32.382-18.695l0.007-8.811L257.57,332.827z"/>
			<path id="XMLID_00000137092436532587605350000000844760035924421514_" style="fill:#F5F5F5;" d="M200.898,301.229v6.352
				c0,0.731,0.518,1.628,1.149,1.993l50.128,28.941l4.246,2.452c0.312,0.186,0.731,0.272,1.149,0.272v-7.462L200.898,301.229z"/>
			<g id="XMLID_00000133494412168294607570000016156565462598680988_">
				<path id="XMLID_00000146478292231429768930000016472139620640873112_" style="fill:#37474F;" d="M240.036,275.956l58.014,33.498
					c0,0,0,0.346,0,0.777c0,0.432,0.605,0.591,1.349,0.16c0.751-0.432,1.356-0.97,1.356-1.714l0.073-0.738l-59.11-34.123
					l-0.239-0.139c-0.06,0.113-0.1,0.239-0.1,0.359v0.359C241.379,274.827,240.781,275.517,240.036,275.956z"/>
				<path id="XMLID_00000146500321163743358970000003551237214796696970_" style="fill:#455A64;" d="M259.296,331.831l37.896-21.881
					c0.482-0.252,0.921-0.455,1.107-0.357l-0.248-0.139l-58.014-33.498c0,0-0.341-0.195-0.678-0.391
					c-0.374-0.217-1.193-0.095-1.828,0.271l-37.603,21.712c-0.95,0.552-0.95,1.449,0,1.993l55.916,32.289
					C256.797,332.381,258.342,332.381,259.296,331.831z"/>
				<path id="XMLID_00000180327277888117050380000000415946257852555913_" style="fill:#455A64;" d="M241.478,273.677l0.239,0.139
					l59.11,34.123c0,0,0.04-0.093,0.127-0.159c0.053-0.033,0.119-0.066,0.199-0.113l0.425-0.246
					c0.159-0.093,0.339-0.199,0.525-0.306c0.246-0.139,0.472-0.113,0.671,0.06c0.026,0.013,0.047,0.033,0.066,0.06
					c0.066,0.066,0.126,0.153,0.179,0.246c0.06,0.1,0.113,0.213,0.153,0.332c0.047,0.12,0.086,0.253,0.12,0.385
					c0.033,0.146,0.06,0.292,0.086,0.452c0.02,0.086,0.026,0.179,0.033,0.272c0.007,0.073,0.013,0.14,0.02,0.219
					c0.013,0.166,0.02,0.339,0.02,0.518v-1.661c0-0.917-0.777-2.106-1.727-2.658l-55.921-32.289
					c-0.957-0.551-2.332-0.645-3.076-0.219l-0.704,0.412l-0.027,0.013c-0.046,0.033-0.166,0.1-0.299,0.173c0,0-0.007,0-0.007,0.007
					C241.611,273.484,241.532,273.571,241.478,273.677z"/>
				<path id="XMLID_00000063605002189987686430000010109267174846858896_" style="fill:#263238;" d="M259.297,342.215l2.339-1.355
					l35.086-20.257c0.013-0.439,0.193-0.87,0.478-1.256c0.399-0.558,0.997-1.037,1.535-1.349c0.412-0.239,1.03-0.518,1.654-0.518
					c0.425,0,0.797,0.133,1.089,0.358c0.226-0.306,0.645-1.482,0.645-2.903h1.329c0,1.834-0.604,3.674-1.348,4.099l-0.671,0.392
					c-0.379,0.219-0.677,0.233-0.677,0.026v-0.358c0-0.399-0.605-0.379-1.356,0.053c-0.744,0.432-1.349,1.103-1.349,1.501v0.359
					c0,0.206-0.518,0.664-1.149,1.029l-33.93,19.593l-3.674,2.119c0,0-0.007,0-0.007,0.007c-0.478,0.266-1.096,0.405-1.721,0.405
					v-1.535C258.194,342.627,258.819,342.495,259.297,342.215z"/>
				<path id="XMLID_00000048464486169426510140000015154600488748368311_" style="fill:#263238;" d="M259.284,331.837
					c0,0,0.007-0.007,0.013-0.007l2.339-1.355l26.954-15.553l8.604-4.969c0.611-0.359,1.11-0.485,1.143-0.299
					c0.006,0.007,0.006,0.013,0.006,0.02v0.392c0,0.432,0.605,0.432,1.349,0c0.73-0.418,1.049-0.937,1.063-1.355v-0.425
					c0-0.219,0.086-0.445,0.199-0.505c0.053-0.033,0.126-0.073,0.199-0.113c0.12-0.067,0.266-0.153,0.425-0.246
					c0.159-0.093,0.339-0.199,0.525-0.306c0.246-0.139,0.472-0.113,0.671,0.06c0.026,0.013,0.047,0.033,0.066,0.06
					c0.046,0.047,0.086,0.1,0.12,0.159c0.027,0.027,0.04,0.053,0.06,0.086c0.06,0.1,0.113,0.213,0.153,0.332
					c0.047,0.12,0.086,0.253,0.12,0.385c0.033,0.146,0.06,0.292,0.086,0.452c0.02,0.086,0.026,0.179,0.033,0.272
					c0.007,0.073,0.013,0.14,0.02,0.219c0.013,0.166,0.02,0.339,0.02,0.518v5.276h-1.329v-5.276c0-0.14-0.007-0.279-0.013-0.412
					l-0.033-0.332c0-0.013,0-0.02-0.007-0.033c-0.119,1.056-1.129,2-2.006,2.498c-0.392,0.232-0.997,0.505-1.621,0.505
					c-0.465,0-0.884-0.166-1.189-0.439l-0.12,0.067c-0.08,0.047-0.152,0.093-0.232,0.14l-33.93,19.593l-3.674,2.119
					c0,0-0.007,0-0.007,0.007c-0.007,0.007-0.013,0.007-0.027,0.013c-0.472,0.259-1.082,0.392-1.694,0.392v-1.533
					C258.256,332.243,258.802,332.091,259.284,331.837z"/>
				<path id="XMLID_00000026856045236186406100000001628859433151339946_" style="fill:#37474F;" d="M199.217,298.526v1.561
					c0,0.359,0.226,0.711,0.684,0.983l0.027,0.013l52.247,30.163l3.667,2.119v0.007c0,0,0.007-0.007,0.007,0
					c0.478,0.266,1.096,0.405,1.721,0.405v-1.535c-0.624,0-1.249-0.133-1.727-0.412l-2.332-1.349h-0.007l-53.576-30.94
					C199.421,299.248,199.218,298.903,199.217,298.526z"/>
				<path id="XMLID_00000154411194492379862990000002769129361709617578_" style="fill:#37474F;" d="M199.217,308.91v1.561
					c0,0.359,0.226,0.711,0.684,0.983l0.027,0.013l52.247,30.163l3.667,2.119v0.007c0,0,0.007-0.007,0.007,0
					c0.478,0.266,1.096,0.405,1.721,0.405v-1.535c-0.624,0-1.249-0.132-1.727-0.412l-2.332-1.349h-0.007l-53.576-30.94
					C199.421,309.632,199.218,309.287,199.217,308.91z"/>
			</g>
		</g>
	</g>
</g>
<g id="Pencil">
	<g id="Pencil_00000039850098441231688970000008625454210322973867_">
		<g>
			<path id="XMLID_7379_" style="fill:#FFA8A7;" d="M192.541,345.258l-9.329-1.827c-0.272-0.053-0.456,0.268-0.273,0.475
				l6.329,7.167L192.541,345.258z"/>
			<path id="XMLID_7378_" style="fill:#263238;" d="M182.939,343.906c-0.183-0.207,0.001-0.528,0.273-0.475l1.821,0.357l0,0
				c-0.51,0.316-0.8,0.891-0.753,1.489l0.014,0.163L182.939,343.906z"/>
		</g>
		<path id="XMLID_7377_" style="fill:#455A64;" d="M233.399,376.374l-0.763-0.438l-0.923-0.525l-42.445-24.337
			c-0.346-1.014-0.178-2.123,0.26-3.095c0.661-1.481,1.946-2.65,3.011-2.718l42.425,24.327l1.76,1.01
			C235.548,370.008,232.228,375.766,233.399,376.374z"/>
		<g>
			<path id="XMLID_7376_" style="fill:#EBEBEB;" d="M230.489,374.717l-1.703-0.981c-0.503-0.268-0.215-1.503,0.374-2.78
				c0.777-1.699,2.309-3.343,2.976-2.99l1.257,0.721l0.445,0.265c-0.667-0.354-2.2,1.29-2.978,2.989
				c-0.562,1.225-0.848,2.416-0.421,2.74l0.005,0.003C230.455,374.699,230.47,374.708,230.489,374.717z"/>
			<path id="XMLID_7375_" style="fill:#BA68C8;" d="M230.066,374.468c-1.169-0.62,2.178-6.385,3.348-5.766l1.708,0.976
				c-1.17-0.62-4.517,5.145-3.348,5.765L230.066,374.468z"/>
		</g>
		<g>
			<path id="XMLID_7374_" style="fill:#EBEBEB;" d="M233.399,376.374l-1.686-0.963c-1.152-0.601,2.032-6.191,3.25-5.823
				c0.022,0.003,0.046,0.014,0.07,0.026l1.691,0.984C235.548,370.008,232.228,375.766,233.399,376.374z"/>
			<path id="XMLID_7373_" style="opacity:0.15;" d="M182.897,343.592l0.315-0.161l6.77,3.702l44.346,25.435
				c0.065-0.105,0.119-0.112,0.162-0.04c-0.995,1.551-1.746,3.505-1.091,3.845l-0.763-0.438l-0.923-0.525l-42.445-24.337
				l-0.001-0.002l-6.329-7.167C182.854,343.809,182.851,343.688,182.897,343.592z"/>
		</g>
		<g>
			<path id="XMLID_7372_" style="fill:#F28F8F;" d="M240.551,380.466l-7.152-4.092c-0.501-0.26-0.223-1.484,0.355-2.754
				c0.773-1.702,2.298-3.361,2.97-3.021c0,0,0.004-0.001,0.009,0.002l7.173,4.108c1.424,0.822,0.115,3.917-1.475,5.299
				C241.84,380.529,241.179,380.76,240.551,380.466z"/>
			<path id="XMLID_7369_" style="opacity:0.1;" d="M240.124,378.248c0.41-1.612,1.716-3.192,2.917-3.53
				c0.441-0.124,0.805-0.062,1.07,0.144c1.076,0.999-0.176,3.838-1.68,5.146c-0.58,0.512-1.226,0.741-1.844,0.472
				C240.052,380.165,239.846,379.34,240.124,378.248z"/>
		</g>
	</g>
</g>
<g id="Magnifying_Glass">
	<g id="Magnifying_Glass_00000068669386011565950190000000891740993009849264_">
		<g>
			<g>
				<path style="fill:#BA68C8;" d="M393.317,393.757c-13.654-7.884-35.796-7.884-49.449,0c-3.971,2.292-6.785,4.997-8.446,7.875
					c-1.198,2.075-1.797,4.236-1.795,6.4l0,9.205c-0.001,5.169,3.41,10.335,10.239,14.278c13.658,7.885,35.796,7.884,49.452,0.002
					c6.826-3.945,10.239-9.111,10.241-14.275l-0.002-9.225C403.552,402.858,400.139,397.695,393.317,393.757z M391.352,406.366
					c3.238,1.869,5.565,4.011,6.909,6.27c-1.369,2.284-3.752,4.449-6.907,6.269c-6.018,3.472-14.101,5.385-22.762,5.386
					c-8.661,0.001-16.743-1.913-22.76-5.386c-3.241-1.871-5.569-4.013-6.907-6.273c1.369-2.284,3.754-4.444,6.905-6.266
					c6.018-3.472,14.101-5.385,22.762-5.386C377.254,400.979,385.336,402.893,391.352,406.366z"/>
				<path style="opacity:0.1;fill:#FFFFFF;" d="M376.568,436.895l0-13.165c-2.57,0.37-5.244,0.561-7.976,0.561
					c-0.534,0-1.065-0.008-1.595-0.022v13.137C370.204,437.49,373.426,437.318,376.568,436.895z M385.298,421.64
					c-1.467,0.511-3.001,0.95-4.591,1.317v13.221c1.568-0.334,3.102-0.734,4.591-1.202V421.64z"/>
				<path style="opacity:0.25;" d="M333.629,408.069l-0.001,9.168c-0.001,5.169,3.41,10.335,10.239,14.278
					c0.262,0.151,0.53,0.292,0.799,0.439l-0.002-9.202c-0.269-0.146-0.533-0.294-0.795-0.445
					C337.06,418.375,333.647,413.221,333.629,408.069z"/>
			</g>
			<path style="fill:#BA68C8;" d="M391.354,397.158c-6.016-3.474-14.102-5.389-22.763-5.388c-8.661,0.001-16.744,1.914-22.759,5.388
				c-3.231,1.866-5.654,4.091-7.009,6.437c-1.724,2.986-1.641,6.109,0.102,9.037c1.369-2.284,3.754-4.444,6.905-6.266
				c6.018-3.472,14.101-5.385,22.762-5.386c8.661-0.001,16.743,1.913,22.76,5.386c3.238,1.869,5.565,4.011,6.909,6.27
				c0.037-0.056,0.07-0.114,0.102-0.168C401.418,407.176,398.795,401.454,391.354,397.158z"/>
			<path style="opacity:0.25;" d="M391.354,397.158c-6.016-3.474-14.102-5.389-22.763-5.388c-8.661,0.001-16.744,1.914-22.759,5.388
				c-3.231,1.866-5.654,4.091-7.009,6.437c-1.724,2.986-1.641,6.109,0.102,9.037c1.369-2.284,3.754-4.444,6.905-6.266
				c6.018-3.472,14.101-5.385,22.762-5.386c8.661-0.001,16.743,1.913,22.76,5.386c3.238,1.869,5.565,4.011,6.909,6.27
				c0.037-0.056,0.07-0.114,0.102-0.168C401.418,407.176,398.795,401.454,391.354,397.158z"/>
			<path style="opacity:0.3;fill:#FFFFFF;" d="M391.345,401.438c-6.016-3.473-14.102-5.389-22.763-5.388
				c-8.661,0.001-16.744,1.914-22.759,5.388c-3.231,1.866-5.654,4.091-7.009,6.437c-0.432,0.748-0.748,1.5-0.956,2.26l-0.002,0.003
				c0.226,0.842,0.584,1.675,1.068,2.494c1.339,2.26,3.666,4.402,6.907,6.273c6.016,3.474,14.098,5.387,22.76,5.386
				c8.661-0.001,16.744-1.914,22.762-5.386c3.155-1.82,5.539-3.985,6.907-6.269c0.037-0.056,0.07-0.114,0.102-0.168
				c0.434-0.751,0.754-1.51,0.954-2.274C398.473,407.031,395.756,403.984,391.345,401.438z"/>
			<g>
				<path style="fill:#BA68C8;" d="M393.317,393.756c-13.655-7.884-35.795-7.884-49.45,0c-13.655,7.884-13.655,20.666,0,28.55
					c13.655,7.884,35.795,7.884,49.45,0C406.973,414.422,406.973,401.64,393.317,393.756z M368.591,391.77
					c8.661-0.001,16.747,1.915,22.763,5.388c7.441,4.296,10.064,10.018,7.009,15.31c-0.032,0.054-0.065,0.112-0.102,0.168
					c-1.369,2.284-3.752,4.449-6.907,6.269c-6.018,3.472-14.101,5.385-22.762,5.386c-8.661,0.001-16.743-1.913-22.76-5.386
					c-3.241-1.871-5.569-4.013-6.907-6.273c-1.742-2.928-1.826-6.051-0.102-9.037c1.355-2.347,3.777-4.571,7.009-6.437
					C351.846,393.683,359.929,391.77,368.591,391.77z"/>
				<g style="opacity:0.3;">
					<path style="fill:#FFFFFF;" d="M393.317,393.756c-13.655-7.884-35.795-7.884-49.45,0c-13.655,7.884-13.655,20.666,0,28.55
						c13.655,7.884,35.795,7.884,49.45,0C406.973,414.422,406.973,401.64,393.317,393.756z M368.591,391.77
						c8.661-0.001,16.747,1.915,22.763,5.388c7.441,4.296,10.064,10.018,7.009,15.31c-0.032,0.054-0.065,0.112-0.102,0.168
						c-1.369,2.284-3.752,4.449-6.907,6.269c-6.018,3.472-14.101,5.385-22.762,5.386c-8.661,0.001-16.743-1.913-22.76-5.386
						c-3.241-1.871-5.569-4.013-6.907-6.273c-1.742-2.928-1.826-6.051-0.102-9.037c1.355-2.347,3.777-4.571,7.009-6.437
						C351.846,393.683,359.929,391.77,368.591,391.77z"/>
				</g>
				<g style="opacity:0.3;">
					<path style="fill:#FFFFFF;" d="M366.008,428.164c-4.983-0.279-9.941-1.12-14.677-2.676c-2.36-0.795-4.668-1.758-6.838-2.977
						c-2.177-1.202-4.217-2.659-5.989-4.395c-1.752-1.742-3.259-3.789-4.071-6.135c-0.83-2.331-0.916-4.917-0.214-7.295
						c0.684-2.388,2.072-4.534,3.785-6.33c1.693-1.828,3.728-3.315,5.864-4.6c-2.16,1.244-4.228,2.693-5.968,4.501
						c-1.739,1.794-3.156,3.954-3.868,6.374c-0.73,2.41-0.66,5.05,0.17,7.43c0.813,2.397,2.33,4.489,4.097,6.264
						c1.807,1.748,3.878,3.204,6.077,4.4c2.194,1.213,4.52,2.165,6.895,2.948c2.38,0.772,4.82,1.35,7.283,1.772
						C361.022,427.839,363.513,428.076,366.008,428.164z"/>
				</g>
				<g style="opacity:0.3;">
					<path style="fill:#FFFFFF;" d="M398.363,412.468c0.622-1.065,1.073-2.241,1.237-3.473c0.166-1.231,0.031-2.5-0.353-3.687
						c-0.38-1.193-1.031-2.279-1.778-3.273c-0.743-1.004-1.646-1.875-2.591-2.683c-1.922-1.583-4.075-2.869-6.334-3.9
						c-2.255-1.045-4.618-1.843-7.023-2.46c-2.404-0.625-4.86-1.04-7.331-1.285c-2.47-0.246-4.956-0.34-7.438-0.262
						c-4.96,0.153-9.924,0.909-14.653,2.49c-2.355,0.807-4.649,1.821-6.796,3.101c-2.137,1.286-4.154,2.845-5.729,4.833
						c-0.787,0.989-1.438,2.103-1.863,3.314c-0.41,1.213-0.578,2.522-0.416,3.8c0.072,0.639,0.219,1.267,0.433,1.87
						c0.211,0.603,0.471,1.189,0.794,1.735c0.631,1.103,1.436,2.09,2.332,2.969c1.795,1.762,3.915,3.127,6.125,4.258
						c2.222,1.116,4.549,2.011,6.937,2.674c2.388,0.665,4.824,1.137,7.28,1.425c2.455,0.296,4.928,0.418,7.395,0.379
						c-4.93-0.106-9.865-0.731-14.568-2.174c-2.356-0.698-4.644-1.613-6.816-2.745c-2.16-1.144-4.219-2.518-5.926-4.244
						c-0.852-0.861-1.606-1.817-2.186-2.866c-0.584-1.042-1.001-2.182-1.126-3.359c-0.143-1.176,0.016-2.373,0.4-3.494
						c0.399-1.118,1.012-2.161,1.766-3.099c1.505-1.884,3.465-3.39,5.552-4.631c2.099-1.239,4.35-2.219,6.663-3.003
						c4.633-1.573,9.526-2.346,14.424-2.52c4.901-0.162,9.83,0.284,14.601,1.418c2.383,0.575,4.726,1.328,6.965,2.327
						c2.244,0.982,4.379,2.224,6.294,3.745c0.945,0.771,1.852,1.604,2.601,2.569c0.753,0.955,1.415,2.001,1.814,3.158
						c0.403,1.151,0.564,2.389,0.432,3.607C399.36,410.2,398.951,411.383,398.363,412.468z"/>
				</g>
			</g>
		</g>
		<g id="XMLID_00000023960960785837294310000007236739097959443334_">
			<g id="XMLID_00000113351290901108219810000003435277290331996813_">
				<path id="XMLID_00000004520812693763652060000017708999206234371005_" style="fill:#37474F;" d="M344.002,427.099
					c0.007-1.583-1.097-3.513-2.465-4.31c-0.68-0.397-1.297-0.437-1.747-0.184l0-0.001l-0.006,0.003l-0.001,0.001l-11.926,6.807
					c-0.003,0.002-0.005,0.003-0.008,0.005l-0.002,0.001l0,0c-0.446,0.259-0.725,0.812-0.728,1.599
					c-0.007,1.583,1.097,3.513,2.465,4.31c0.684,0.399,1.305,0.439,1.755,0.181l0,0l11.925-6.805l-0.001-0.001
					C343.716,428.45,343.999,427.894,344.002,427.099z"/>
				<path id="XMLID_00000059298076658346644420000007548535825055036574_" style="fill:#263238;" d="M343.262,428.706
					c0.454-0.256,0.738-0.811,0.741-1.607c0.002-0.596-0.153-1.242-0.421-1.858l-15.38,8.796c0.394,0.538,0.869,0.996,1.381,1.294
					c0.684,0.399,1.305,0.439,1.755,0.181l11.925-6.805L343.262,428.706z"/>
			</g>
			<path id="XMLID_00000066481839702455855440000016102134100609517484_" style="fill:#BA68C8;" d="M331.595,435.297
				c0.008-2.06-1.428-4.572-3.208-5.609c-0.873-0.509-1.663-0.563-2.246-0.249l-0.002-0.005l-0.034,0.018
				c-0.001,0-0.001,0.001-0.002,0.001l-30.986,16.24l5.901,10.429l29.617-18.735C331.224,437.052,331.591,436.329,331.595,435.297z"
				/>
			<path id="XMLID_00000100378267973485875900000010302140533222131629_" style="opacity:0.1;" d="M301.018,456.122l29.617-18.735
				c0.589-0.335,0.955-1.057,0.96-2.09c0.004-1.106-0.415-2.336-1.073-3.404l-32.547,18.852L301.018,456.122z"/>
			<g id="XMLID_00000108300174175142304880000007718001751048701322_">
				<path id="XMLID_00000149340352228478567520000016985992822835739791_" style="fill:#BA68C8;" d="M298.036,455.808
					c-2.335-1.359-4.218-4.653-4.207-7.356c0.011-2.704,1.912-3.792,4.247-2.432c2.335,1.361,4.218,4.654,4.207,7.356
					C302.272,456.079,300.37,457.168,298.036,455.808z"/>
			</g>
			<g id="XMLID_00000044172941368940994340000008604588796106036868_" style="opacity:0.2;">
				<path id="XMLID_00000024683822064739496660000012189211139321391290_" d="M298.036,455.808
					c-2.335-1.359-4.218-4.653-4.207-7.356c0.011-2.704,1.912-3.792,4.247-2.432c2.335,1.361,4.218,4.654,4.207,7.356
					C302.272,456.079,300.37,457.168,298.036,455.808z"/>
			</g>
		</g>
	</g>
</g>
<g id="Character">
	<g id="Character_26_">
		<g id="Bottom_18_">
			<g>
				<path style="fill:#263238;" d="M92.907,382.114c0,0-0.06,0.993-0.023,1.768c0.025,0.522,0.343,1.314,1.435,2.312
					c1.901,1.738,6.288,2.904,9.768,2.338c3.05-0.496,4.213-1.24,5.81-2.752c1.815-1.719,3.276-3.649,4.015-4.277
					c1.107-0.94,3.228-2.079,6.008-2.991c2.926-0.96,8.546-2.892,10.932-7.263c2.386-4.371,1.392-7.779,1.392-7.779L92.907,382.114z
					"/>
				<path style="fill:#37474F;" d="M113.215,360.819c-6.279,1.728-12.317,12.517-19.458,9.027c-0.386,4.214-1.773,7.006-0.85,12.267
					c2.765,4.255,10.226,5.461,14.496,3.048c2.181-1.509,2.954-3.102,5.079-4.716c1.682-1.277,3.561-1.989,5.663-2.714
					c1.925-0.663,5.215-2.044,6.816-2.921c7.165-4.247,9.018-11.355,5.758-15.019C128.115,356.866,123.151,358.084,113.215,360.819z
					"/>
				<path style="fill:#FAFAFA;" d="M116.259,359.991l0.9-0.238c3.096-0.037,6.146,1.33,8.307,3.689
					c2.308,2.519,2.788,7.617,2.784,8.897l-0.222,0.208c0,0,0.17,1.072,1.704-1.025c1.534-2.097,2.933-4.681,2.853-7.926
					c-0.08-3.245-1.917-5.615-5.824-5.697C123.826,357.838,116.127,359.339,116.259,359.991z"/>
			</g>
			<g id="XMLID_00000155113825136445015180000018397130276359328954_">
				<path style="fill:#263238;" d="M127.365,399.685c-0.095-0.002,0.049,2.224,0.172,2.465c0.312,0.607,1.104,0.925,1.667,1.104
					c3.337,1.059,6.859,1.151,10.175,2.182c2.18,0.678,4.331,1.481,6.417,2.459c2.138,1.003,4.103,2.086,6.371,2.718
					c4.902,1.367,10.725,1.416,14.363-0.026c6.806-2.698,6.45-4.986,6.432-7.56C172.945,400.453,127.366,399.685,127.365,399.685z"
					/>
				<path id="XMLID_00000041289964928021019840000014111286511444896140_" style="fill:#37474F;" d="M128.848,382.554
					c-1.261,5.232-2.666,13.08-1.482,17.13c1.346,1.563,5.987,2.604,10.037,3.336c3.804,0.687,7.246,1.903,10.657,4.033
					c7.791,3.878,20.977,3.146,24.661-2.673c2.525-8.374-12.671-8.984-21.445-15.546c-2.199-1.644-2.555-3.174-3.189-5.729
					C148.086,383.105,134.031,383.963,128.848,382.554z"/>
				<path style="fill:#FAFAFA;" d="M152.955,408.754c-0.738-1.679-1.425-6.736,1.674-10.264c3.099-3.527,7.421-4.248,9.281-3.811
					c2.186,0.528,6.248,2.525,7.885,4.42c1.638,1.895,2.37,4.965-0.518,7.25C168.39,408.635,162.726,411.017,152.955,408.754z"/>
			</g>
			<g id="XMLID_00000179640166035824696080000006075021642818763959_">
				<path id="XMLID_4746_" style="fill:#455A64;" d="M94.063,316.544c0.613-11,4.578-20.096,4.484-26.169
					c-0.182-11.676,0.403-19.421-0.502-29.119c-0.964-10.33-1.299-18.891-0.85-26.202c0.449-7.313,1.681-13.377,2.636-22.565
					c0,0,54.464-3.587,55.578,17.873c1.115,21.459-0.318,76.146-0.999,85.574c-0.413,9.559-5.146,62.364-5.281,69.104
					c-9.387,7.111-21.126,1.21-21.126,1.21c-1.339-23.951-5.696-38.998-1.605-60.137c-0.001,0.002-2.38-31.233-2.38-31.233
					s-8.677,57.105-11.967,75.094c-4.739,6.761-16.309,4.182-18.403-0.008C93.97,347.861,93.318,329.899,94.063,316.544z"/>
				<path style="fill:#37474F;" d="M124.018,294.88l-2.311-35.849c0,0-9.216-1.866-15.882-10.611
					c1.727,6.918,8.277,11.75,12.944,13.53l2.236,25.608l-1.031,33.586L124.018,294.88z"/>
			</g>
		</g>
		<g id="Top_18_">
			<g>
				<polygon id="XMLID_5855_" style="fill:#FFA8A7;" points="133.245,149.89 132.23,163.887 112.458,164.031 113.543,148.874 				
					"/>
				<g id="XMLID_5784_">
					<g id="XMLID_5853_">
						<path id="XMLID_5854_" style="fill:#F28F8F;" d="M138.242,123.373c1.565,1.749,6.427,7.022,6.667,8.076l-3.538,2.487
							L138.242,123.373z"/>
					</g>
					<g id="XMLID_5785_">
						<path id="XMLID_5819_" style="fill:#FFA8A7;" d="M126.876,110.083c5.785-0.996,9.824,2.893,12.304,15.182
							c0.097,0.481,0.864,1.198,1.526,3.019c2.839,7.808,2.014,15.466,0.797,17.567c-3.202,2.927-6.889,4.612-12.354,4.494
							c-4.165-0.089-14.808-1.111-20.52-6.364c-6.719-6.18-10.53-15.893-6.381-21.322
							C108.088,115.018,123.689,110.631,126.876,110.083z"/>
					</g>
					<path style="fill:#F28F8F;" d="M141.503,145.85c-0.675,1.162-4.973,4.325-8.31,4.75l0.159-2.456
						C133.352,148.143,137.72,148.225,141.503,145.85z"/>
				</g>
				<g id="XMLID_5687_">
					<g id="XMLID_5781_">
						<g id="XMLID_5782_">
							<path id="XMLID_5783_" style="fill:#263238;" d="M129.405,131.734c-0.345,0.974-1.299,1.119-1.925,0.445
								c-0.751-0.808-1.355-1.693-2.281-2.328c-1.072-0.735-2.392-1.169-3.678-0.989c-4.866,0.682-3.264,7.047-0.722,9.137
								c4.161,3.419,6.048,0.118,6.048,0.118s3.214,6.052-0.664,9.953c0,0-6.901,3.518-12.584,2.142
								c-4.455-4.228-7.424-6.885-10.473-10.572c-7.223-8.735-7.806-17.788-3.712-20.648c-0.446-3.235,1.004-8.23,7.497-11.474
								c6.188-3.091,10.46-3.095,15.073-3.131c4.613-0.036,10.397,1.703,14.437-2.134c1.232,2.49,1.154,5.584-0.202,8.008
								c1.318-0.696,3.146-0.155,3.874,1.146c0.728,1.301,0.233,3.141-1.049,3.901c0.97,0.407,1.485,1.609,1.211,2.625
								s-1.236,1.774-2.278,1.917c-1.103,0.152-1.801,0.089-2.901-0.001c-1.102,3.841-5.257,5.423-7.784,5.424
								c0.069-0.018,0.429,0.489,0.48,0.555c0.157,0.201,0.304,0.409,0.441,0.624c0.273,0.431,0.504,0.888,0.69,1.363
								c0.372,0.95,0.563,1.971,0.547,2.991C129.444,131.126,129.515,131.425,129.405,131.734z"/>
						</g>
					</g>
				</g>
			</g>
			<g>
				<path id="XMLID_5870_" style="fill:#455A64;" d="M109.387,156.1c-7.02-0.33-13.982,1.747-18.242,11.511
					c-4.033,9.242-9.7,22.583-11.782,29.292c-1.016,3.272-2.874,6.214,3.23,11.977c8.352,7.886,18.724,13.341,18.724,13.341
					l7.785-12.87l-10.408-9.856l3.401-8.404L109.387,156.1z"/>
				<path style="fill:#263238;" d="M98.693,199.494c-1.007,1.66-3.325,3.97-5.687,4.802c2.697,0.653,5.687-2.232,6.592-3.944
					L98.693,199.494z"/>
			</g>
			<g>
				<path style="fill:#37474F;" d="M104.33,158.188c-4.9,2.742-8.621,11.897-8.261,19.538c0.228,4.836,1.928,17.323,3.376,28.363
					c0.456,3.479-0.928,9.347-1.57,16.404c-0.476,5.233-1.197,14.083-1.197,14.083s6.742,6.761,24.676,8.869
					c25.312,2.975,34.724-4.325,34.724-4.325s-0.81-21.596-1.364-36.442c-0.822-22.016-0.869-28.457-4.31-35.952
					c-1.138-2.215-2.329-7.149-6.078-8.123c-2.97-0.772-9.822-2.413-12.534-2.826c-4.448,1.145-15.982,1.241-18.839-1.192
					l0.047-0.64C108.05,155.885,107.353,156.496,104.33,158.188z"/>
			</g>
			<g id="Arm_19_">
				<path style="fill:#F28F8F;" d="M217.943,142.44c2.53-3.171,3.876-4.494,5.233-5.294c1.357-0.8,5.941-4.292,7.784-5.301
					c1.169-0.64,2.199,1.217,0.965,3.003c-0.95,1.377-3.777,3.595-4.975,4.729c-1.198,1.134-3.069,5.193-3.069,5.193L217.943,142.44
					z"/>
				<path style="fill:#FFA8A7;" d="M191.025,184.661c-2.648,1.495-5.278,1.102-14.297,0.626c-6.446-0.34-15.35-0.604-30.49-2.014
					c-5.662-5.663-7.03-15.564-1.391-21.637c5.892-1.36,23.729,5.796,42.783,5.372c0,0,18.776-8.584,20.844-10.117
					c2.068-1.534,5.868-9.556,7.3-11.897c1.95-3.186,3.33-3.19,4.707-3.339c4.508-0.488,5.556-0.373,6.627-0.031
					c1.071,0.342,1.287,1.467,1.287,1.467c1.19-0.158,2.904-0.647,3.623,1.187c0.474,1.211,0.467,1.498,0.467,1.498
					s0.425-0.067,0.861,0.233c1.25,0.859,0.616,5.133-0.183,6.345c-0.56,0.85-1.584,1.207-3.005,1.381
					c-1.208,0.148-0.978-1.182-0.978-1.182l-1.607,0.525c-2.87,3.431-1.745,8.444-6.12,10.763c-0.924,0.489-2.955,0.993-5.406,2.601
					C205.334,174.981,194.458,182.724,191.025,184.661z"/>
				<g>
					<path style="fill:#F28F8F;" d="M228.394,143.091l-5.424,0.313l5.129-0.997C228.242,142.627,228.342,142.855,228.394,143.091z"
						/>
					<path style="fill:#F28F8F;" d="M232.484,145.776l-6.131,0.787l5.957-1.477C232.392,145.294,232.446,145.527,232.484,145.776z"
						/>
					<path style="fill:#F28F8F;" d="M232.388,148.592c-0.1,0.352-0.339,0.661-0.616,0.902c-0.275,0.251-0.588,0.445-0.923,0.612
						l0.064-0.077c-0.076,0.352-0.165,0.7-0.258,1.048l-0.164-0.126c0.329-0.152,0.69-0.146,1.003-0.017
						c0.313,0.129,0.548,0.375,0.72,0.639c-0.222-0.228-0.492-0.397-0.773-0.488c-0.282-0.076-0.599-0.056-0.842,0.064l-0.216,0.107
						l0.052-0.233c0.078-0.351,0.161-0.701,0.255-1.049l0.015-0.055l0.049-0.023c0.316-0.144,0.624-0.33,0.913-0.531
						C231.948,149.154,232.224,148.919,232.388,148.592z"/>
					<path style="fill:#F28F8F;" d="M231.013,149.769c-0.558,0.277-2.106,0.714-2.106,0.714s0.066,0.435-0.438,1.333
						c-0.269,0.481-0.897,1.262-0.897,1.262l1.607-0.526c0,0,0.206-0.834,1.602-1.501L231.013,149.769z"/>
				</g>
				<path style="fill:#455A64;" d="M143.769,160.46c3.116,0.143,6.665,0.287,11.558,1.627c3.505,0.961,16.336,3.375,20.011,3.724
					c3.674,0.349,12.309,0.794,12.309,0.794l11.355-4.899c0,0,2.007,0.678,4.043,4.899c2.036,4.221,0.695,9.789,0.695,9.789
					s-10.039,6.924-12.219,8.335c-2.181,1.411-3.432,1.738-6.779,1.49c-3.346-0.248-25.77-1.63-28.322-1.341
					c-2.552,0.289-3.261,1.194-4.69,2.019c-1.43,0.826-5.25-0.59-7.7-4.295C141.578,178.897,136.532,165.883,143.769,160.46z"/>
			</g>
			<path style="fill:#263238;" d="M113.305,152.188l-0.087,1.219c0,0,1.931,2.521,8.811,3.046c6.88,0.525,8.9-0.75,11.084-0.385
				c2.184,0.364,5.672,3.179,5.672,3.179s-4.416,5.577-17.084,4.275c-12.668-1.302-12.43-7.405-12.43-7.405
				C111.98,153.126,112.508,152.098,113.305,152.188z"/>
		</g>
	</g>
</g>
</svg>
