<?xml version="1.0" encoding="utf-8"?>
<!-- Generator: Adobe Illustrator 27.5.0, SVG Export Plug-In . SVG Version: 6.00 Build 0)  -->
<svg version="1.1" xmlns="http://www.w3.org/2000/svg" xmlns:xlink="http://www.w3.org/1999/xlink" x="0px" y="0px"
	 viewBox="0 0 500 500" style="enable-background:new 0 0 500 500;" xml:space="preserve">
<g id="BACKGROUND">
	<rect style="fill:#FFFFFF;" width="500" height="500"/>
</g>
<g id="OBJECTS">
	<g>
		<g>
			<g>
				<path style="fill:#FFE6F8;" d="M375.755,179.583c-23.015,6.102-51.261,15.93-94.696-10.174
					c-37.675-22.642-90.016-90.603-176.87-57.913C17.212,144.232,5.174,280.913,41.565,335.304
					c63.264,94.556,190.174,94.044,304.826,64.435s133.011-67.638,135.783-120.743C484.913,226.522,442.503,161.886,375.755,179.583
					z"/>
			</g>
			<g>
				<path style="fill:#FFE6F8;" d="M60.127,439.522h304.492c15.902,0,31.511-4.28,45.189-12.39l35.375-20.975
					c4.895-2.902,2.837-10.409-2.854-10.409H119.481c-0.941,0-1.868,0.238-2.693,0.691L57.434,429.02
					C52.359,431.806,54.338,439.522,60.127,439.522z"/>
			</g>
		</g>
		<g>
			<g>
				
					<ellipse transform="matrix(0.9427 -0.3337 0.3337 0.9427 -57.1655 167.9884)" style="fill:#F8B3FF;" cx="460.397" cy="250.391" rx="25.337" ry="12.913"/>
				<path style="fill:#B375DB;" d="M412.13,263.804c-0.22,0-0.421-0.145-0.481-0.366c-0.074-0.267,0.082-0.542,0.348-0.615
					l61.435-17.022c0.27-0.074,0.543,0.083,0.615,0.349c0.074,0.266-0.082,0.542-0.348,0.615l-61.435,17.021
					C412.219,263.798,412.174,263.804,412.13,263.804z"/>
			</g>
			<g>
				
					<ellipse transform="matrix(0.2389 -0.971 0.971 0.2389 157.4367 517.8542)" style="fill:#F8B3FF;" cx="409.063" cy="158.497" rx="30.219" ry="15.485"/>
				<path style="fill:#B375DB;" d="M400.109,216.343c-0.027,0-0.055-0.002-0.082-0.007c-0.273-0.045-0.457-0.302-0.412-0.574
					l11.239-68.365c0.044-0.273,0.307-0.459,0.574-0.412c0.272,0.044,0.457,0.302,0.412,0.574l-11.239,68.365
					C400.561,216.169,400.349,216.343,400.109,216.343z"/>
			</g>
			<g>
				<path style="fill:#F8B3FF;" d="M380.239,278.996c0,0,31.304-1.018,60.848-44.844c15.698-23.287,19.113-45.085,10.776-50.861
					c-10.063-6.971-36.838,4.139-55.385,29.926C372.551,246.485,380.239,278.996,380.239,278.996z"/>
				<path style="fill:#B375DB;" d="M370.261,333.848c-0.03,0-0.061-0.003-0.091-0.008c-0.272-0.05-0.452-0.311-0.402-0.582
					l9.979-54.352c0.15-0.459,13.727-39.503,62.167-86.006c0.2-0.189,0.517-0.186,0.707,0.015c0.191,0.199,0.186,0.516-0.014,0.707
					c-48.248,46.318-61.764,85.148-61.895,85.535l-9.96,54.281C370.708,333.679,370.498,333.848,370.261,333.848z"/>
			</g>
			<g>
				
					<ellipse transform="matrix(0.9609 -0.2768 0.2768 0.9609 -89.5283 26.1699)" style="fill:#F8B3FF;" cx="47.947" cy="330.252" rx="14.889" ry="57.522"/>
				<path style="fill:#B375DB;" d="M76.913,420.717c-0.213,0-0.41-0.137-0.477-0.351c-13.409-42.803-40.55-122.838-40.823-123.642
					c-0.088-0.261,0.051-0.545,0.313-0.634c0.264-0.084,0.545,0.052,0.634,0.313c0.272,0.804,27.417,80.85,40.83,123.664
					c0.082,0.264-0.064,0.544-0.328,0.627C77.013,420.71,76.962,420.717,76.913,420.717z"/>
			</g>
			<g>
				
					<ellipse transform="matrix(0.7642 -0.6449 0.6449 0.7642 -240.3082 114.2299)" style="fill:#F8B3FF;" cx="36.087" cy="385.803" rx="19.761" ry="37.159"/>
				<path style="fill:#B375DB;" d="M69.87,421.761c-0.136,0-0.272-0.056-0.371-0.165l-38.87-43.044
					c-0.185-0.205-0.169-0.521,0.036-0.706c0.205-0.184,0.521-0.17,0.706,0.036l38.87,43.044c0.185,0.205,0.169,0.521-0.036,0.706
					C70.109,421.718,69.989,421.761,69.87,421.761z"/>
			</g>
			<g>
				
					<ellipse transform="matrix(0.501 -0.8654 0.8654 0.501 -52.5431 547.8459)" style="fill:#F8B3FF;" cx="448.827" cy="319.489" rx="42.002" ry="12.279"/>
				<path style="fill:#B375DB;" d="M410.904,383.578c-0.089,0-0.178-0.024-0.259-0.072c-0.236-0.143-0.312-0.45-0.169-0.686
					l49.123-81.277c0.144-0.236,0.452-0.309,0.687-0.169c0.236,0.143,0.311,0.45,0.169,0.686l-49.123,81.277
					C411.238,383.491,411.073,383.578,410.904,383.578z"/>
			</g>
			<g>
				<path style="fill:#F8B3FF;" d="M472.288,339.573c4.59,6.237-1.279,18.352-13.11,27.059c-11.831,8.707-25.143,10.71-29.733,4.473
					c-4.59-6.237,1.279-18.352,13.11-27.059C454.386,335.339,467.698,333.336,472.288,339.573z"/>
				<path style="fill:#B375DB;" d="M418.913,381.065c-0.149,0-0.298-0.067-0.396-0.195c-0.168-0.219-0.127-0.533,0.092-0.701
					l43.826-33.651c0.218-0.168,0.531-0.128,0.701,0.092c0.168,0.219,0.127,0.533-0.092,0.701l-43.826,33.651
					C419.127,381.031,419.019,381.065,418.913,381.065z"/>
			</g>
		</g>
	</g>
	<g>
		<g>
			<g>
				<path style="fill:#B375DB;" d="M426.881,351.542L426.881,351.542c0-1.887-1.53-3.417-3.417-3.417H230.043L74.702,381.814
					c-4.081,0.885-6.993,4.496-6.993,8.672v22.683c0,4.901,3.973,8.874,8.874,8.874h237.604c2.793,0,5.562-0.523,8.162-1.543
					l102.295-40.102c1.35-0.529,2.238-1.832,2.238-3.282l0,0c0-1.947-1.578-3.525-3.525-3.525h-0.691v-18.169l1.9-0.646
					C425.95,354.306,426.881,353.005,426.881,351.542z"/>
			</g>
			<g>
				<path style="fill:#FFFFFF;" d="M322.13,389.606c-2.222,0.756-3.717,2.842-3.717,5.189v10.818c0,3.812,3.794,6.459,7.372,5.144
					l96.88-35.615v-19.719L322.13,389.606z"/>
			</g>
			<g>
				<path style="fill:#F8B3FF;" d="M422.665,375.62c-0.276,0-0.5-0.224-0.5-0.5v-18.195c0-0.276,0.224-0.5,0.5-0.5
					c0.276,0,0.5,0.224,0.5,0.5v18.195C423.165,375.396,422.941,375.62,422.665,375.62z"/>
			</g>
			<g>
				<path style="fill:#F8B3FF;" d="M331,404.141c-0.308,0-0.597-0.191-0.706-0.498c-0.14-0.39,0.064-0.819,0.454-0.958
					l81.131-28.956c0.386-0.142,0.818,0.064,0.958,0.454c0.14,0.39-0.063,0.819-0.454,0.958l-81.131,28.956
					C331.169,404.127,331.084,404.141,331,404.141z"/>
			</g>
			<g>
				<path style="fill:#F8B3FF;" d="M348.087,391.114c-0.312,0-0.604-0.196-0.71-0.508c-0.134-0.392,0.075-0.818,0.468-0.952
					l73.696-25.189c0.39-0.135,0.817,0.076,0.952,0.468c0.134,0.392-0.075,0.818-0.468,0.952l-73.696,25.19
					C348.249,391.101,348.167,391.114,348.087,391.114z"/>
			</g>
			<g>
				<path style="fill:#213059;" d="M74.702,381.814c-4.081,0.885-6.993,4.496-6.993,8.672v22.683c0,4.901,3.973,8.874,8.874,8.874
					h237.604c0.113,0,0.224-0.014,0.336-0.016c-4.028-0.165-7.245-3.473-7.245-7.541v-18.859c0-3.151,1.996-5.957,4.973-6.99
					l113.676-39.455c0,0,0,0,0,0c-0.305-0.318-0.671-0.576-1.078-0.759c-0.009-0.004-0.016-0.01-0.025-0.014
					c-0.18-0.079-0.372-0.136-0.566-0.183c-0.031-0.008-0.06-0.022-0.092-0.028c-0.226-0.048-0.461-0.073-0.701-0.073H230.043
					L74.702,381.814z"/>
			</g>
		</g>
		<g>
			<g>
				<path style="fill:#2178BF;" d="M430.391,306.806L430.391,306.806c0-1.946-1.577-3.523-3.523-3.523h-196.89L72.826,329.851
					c-6.15,1.04-10.652,6.366-10.652,12.604v30.349c0,7.06,5.723,12.783,12.783,12.783h232.322c5.403,0,10.769-0.878,15.89-2.599
					L428,347.75c1.429-0.48,2.392-1.82,2.392-3.327v-0.684c0-1.938-1.572-3.51-3.51-3.51h0v-29.791l0.857-0.218
					C429.299,309.822,430.391,308.416,430.391,306.806z"/>
			</g>
			<g>
				<path style="fill:#FFFFFF;" d="M426.881,310.438l-104.176,26.536c-4.277,1.09-7.27,4.941-7.27,9.354v17.604
					c0,6.545,6.375,11.193,12.606,9.19l98.839-31.766V310.438L426.881,310.438z"/>
			</g>
			<g>
				<path style="fill:#F8B3FF;" d="M426.882,341.857c-0.276,0-0.5-0.224-0.5-0.5v-30.216c0-0.276,0.224-0.5,0.5-0.5
					s0.5,0.224,0.5,0.5v30.216C427.382,341.633,427.158,341.857,426.882,341.857z"/>
			</g>
			<g>
				<path style="fill:#F8B3FF;" d="M332.402,363.446c-0.323,0-0.621-0.21-0.719-0.535c-0.118-0.396,0.107-0.814,0.504-0.934
					l93.974-28.155c0.396-0.117,0.814,0.107,0.934,0.504c0.118,0.396-0.107,0.815-0.504,0.934l-93.974,28.155
					C332.546,363.436,332.473,363.446,332.402,363.446z"/>
			</g>
			<g>
				<path style="fill:#F8B3FF;" d="M354.16,348.451c-0.329,0-0.63-0.217-0.723-0.549c-0.111-0.399,0.123-0.813,0.521-0.924
					l72.216-20.081c0.4-0.111,0.813,0.122,0.924,0.522c0.111,0.399-0.123,0.813-0.522,0.924l-72.216,20.081
					C354.294,348.442,354.226,348.451,354.16,348.451z"/>
			</g>
			<g>
				<path style="fill:#F8B3FF;" d="M332.044,344.077c-0.329,0-0.631-0.218-0.723-0.55c-0.11-0.399,0.123-0.813,0.522-0.923
					l84.782-23.478c0.405-0.11,0.813,0.124,0.923,0.522c0.11,0.399-0.123,0.813-0.522,0.923l-84.782,23.479
					C332.176,344.068,332.109,344.077,332.044,344.077z"/>
			</g>
			<g>
				<path style="fill:#255C99;" d="M314.099,385.108c-3.715-1.232-6.397-4.727-6.397-8.855v-32.659c0-4.221,2.834-7.917,6.911-9.012
					l114.247-30.68c-0.567-0.39-1.252-0.62-1.992-0.62h-196.89L72.826,329.851c-6.15,1.04-10.652,6.366-10.652,12.604v30.349
					c0,7.06,5.723,12.783,12.783,12.783h232.322C309.564,385.587,311.842,385.42,314.099,385.108z"/>
			</g>
		</g>
		<g>
			<g>
				<path style="fill:#F5BC54;" d="M427.522,280.799l0.957-0.201c0.992-0.208,1.815-1.004,1.904-2.013
					c0.116-1.323-0.924-2.432-2.223-2.432H236.141L86.9,298.451c-8.175,1.221-14.226,8.243-14.226,16.509v0
					c0,9.219,7.473,16.692,16.692,16.692H313.81c1.065,0,2.125-0.131,3.158-0.391l111.345-27.978
					c1.222-0.307,2.079-1.406,2.079-2.665l0,0c0-1.518-1.23-2.748-2.748-2.748h-0.121V280.799z"/>
			</g>
			<g>
				<path style="fill:#EA8475;" d="M85.873,298.652c-7.647,1.634-13.199,8.393-13.199,16.307v0c0,9.219,7.473,16.692,16.692,16.692
					h220.047v-24.554c0-4.664-3.781-8.446-8.446-8.446H85.873z"/>
			</g>
			<g>
				<path style="fill:#FFFFFF;" d="M323.701,302.621c-4.826,1.014-8.277,5.277-8.265,10.208c0.016,6.74,6.338,11.687,12.885,10.081
					l99.201-24.337v-17.775L323.701,302.621z"/>
			</g>
			<g>
				<path style="fill:#F8B3FF;" d="M427.522,299.074c-0.276,0-0.5-0.224-0.5-0.5v-17.171c0-0.276,0.224-0.5,0.5-0.5
					s0.5,0.224,0.5,0.5v17.171C428.022,298.85,427.798,299.074,427.522,299.074z"/>
			</g>
			<g>
				<path style="fill:#F8B3FF;" d="M341.434,313.987c-0.341,0-0.649-0.234-0.73-0.581c-0.094-0.403,0.158-0.807,0.562-0.899
					l85.446-19.76c0.397-0.096,0.806,0.157,0.9,0.561c0.094,0.403-0.158,0.807-0.562,0.899l-85.446,19.76
					C341.547,313.981,341.491,313.987,341.434,313.987z"/>
			</g>
			<g>
				<path style="fill:#F8B3FF;" d="M358.716,303.09c-0.344,0-0.653-0.237-0.731-0.587c-0.09-0.404,0.165-0.805,0.569-0.896
					l67.797-15.102c0.398-0.087,0.805,0.164,0.895,0.569c0.09,0.404-0.165,0.805-0.569,0.896l-67.797,15.102
					C358.826,303.084,358.771,303.09,358.716,303.09z"/>
			</g>
			<g>
				<path style="fill:#EA8475;" d="M370.124,281.748c0,1.52-3.982,2.752-8.895,2.752s-8.894-1.232-8.894-2.752
					c0-1.52,3.982-2.752,8.894-2.752S370.124,280.228,370.124,281.748z"/>
			</g>
		</g>
		<g>
			<g>
				<path style="fill:#F5BC54;" d="M151.587,118.848l-8.74-9.039c-0.359-0.371-0.983-0.235-1.154,0.253l-8.497,24.243
					c-15.391,2.217-15,16.891-15,16.891h29.217c1.239-15.13,15.522-16.891,15.522-16.891l5.51-23.755
					c0.137-0.59-0.495-1.06-1.021-0.76L151.587,118.848z"/>
			</g>
			<g>
				<path style="fill:#EA8475;" d="M156.217,135.305h-23.022c-0.552,0-1-0.448-1-1c0-0.552,0.448-1,1-1h23.022c0.552,0,1,0.448,1,1
					C157.217,134.857,156.77,135.305,156.217,135.305z"/>
			</g>
			<g>
				<path style="fill:#213059;" d="M118.196,151.196h29.217c0.217-2.654,0.842-4.889,1.714-6.783h-29.56
					C118.113,148.027,118.196,151.196,118.196,151.196z"/>
			</g>
			<g>
				<path style="fill:#FF4D4D;" d="M314.52,162.069l-20.136,0.013c0.964-6.215,1.509-9.745,1.509-9.745
					c0.38-2.56-1.604-4.859-4.191-4.859h-181.65c-11.818,0-21.853,8.656-23.587,20.346L51.074,406.439
					c-2.137,14.405,9.025,27.344,23.587,27.344h201.445c3.14,0,5.806-2.3,6.267-5.406l38.422-259.043
					C321.363,165.503,318.392,162.064,314.52,162.069z"/>
			</g>
			<g>
				<g>
					<path style="fill:#FFFFFF;" d="M255.011,403.322H76.476c-6.304,0-11.415,5.111-11.415,11.415s5.11,11.415,11.415,11.415
						h196.231l37.685-253.37l-9.8-10.696h0l-5.288-5.771l0,0l-36.101,243.392C258.894,401.784,257.111,403.322,255.011,403.322z"/>
				</g>
				<g>
					<path style="fill:#F8B3FF;" d="M300.591,162.087L300.591,162.087l-5.288-5.771l-36.101,243.392
						c-0.19,1.281-0.944,2.354-1.984,2.991l15.488,23.454l37.685-253.37L300.591,162.087z"/>
				</g>
				<g>
					<path style="fill:#B375DB;" d="M262.842,411.849c-0.036,0-0.073-0.003-0.11-0.008c-0.41-0.06-0.693-0.442-0.633-0.852
						l12.137-82.056c0.06-0.41,0.439-0.689,0.852-0.633c0.41,0.061,0.693,0.442,0.633,0.852l-12.137,82.056
						C263.528,411.581,263.208,411.849,262.842,411.849z"/>
				</g>
				<g>
					<path style="fill:#F8B3FF;" d="M262.841,411.849H103.261c-0.414,0-0.75-0.336-0.75-0.75c0-0.414,0.336-0.75,0.75-0.75h159.581
						c0.414,0,0.75,0.336,0.75,0.75C263.591,411.513,263.255,411.849,262.841,411.849z"/>
				</g>
				<g>
					<path style="fill:#F8B3FF;" d="M192.217,420.967H85.261c-0.414,0-0.75-0.336-0.75-0.75s0.336-0.75,0.75-0.75h106.956
						c0.414,0,0.75,0.336,0.75,0.75S192.632,420.967,192.217,420.967z"/>
				</g>
				<g>
					<path style="fill:#F8B3FF;" d="M250,420.967h-43.892c-0.414,0-0.75-0.336-0.75-0.75s0.336-0.75,0.75-0.75H250
						c0.414,0,0.75,0.336,0.75,0.75S250.414,420.967,250,420.967z"/>
				</g>
				<g>
					<path style="fill:#B375DB;" d="M268.81,420.878c-0.037,0-0.074-0.003-0.111-0.008c-0.41-0.061-0.692-0.443-0.632-0.852
						l19.828-133.113c0.061-0.41,0.447-0.689,0.852-0.632c0.41,0.061,0.692,0.443,0.632,0.853l-19.828,133.113
						C269.496,420.611,269.175,420.878,268.81,420.878z"/>
				</g>
				<g>
					<path style="fill:#B375DB;" d="M272.145,426.288c-0.328,0-0.65-0.161-0.841-0.457l-13.963-21.599
						c-0.3-0.464-0.167-1.083,0.297-1.383c0.465-0.3,1.083-0.166,1.383,0.297l13.963,21.599c0.3,0.464,0.167,1.083-0.297,1.383
						C272.519,426.237,272.331,426.288,272.145,426.288z"/>
				</g>
				<g>
					<path style="fill:#213059;" d="M255.011,404.323H76.476c-0.552,0-1-0.447-1-1c0-0.553,0.448-1,1-1h178.536
						c1.592,0,2.969-1.188,3.202-2.762l36.101-243.392c0.08-0.546,0.593-0.918,1.136-0.843c0.547,0.081,0.924,0.59,0.843,1.136
						l-36.101,243.392C259.813,402.402,257.587,404.323,255.011,404.323z"/>
				</g>
			</g>
		</g>
	</g>
	<g>
		<g>
			<path style="fill:#255C99;" d="M245.859,237.182c0,0,10.966-33.65,31.63-54.095l-9.293-2.054c0,0-22.109,26.804-32.034,56.933
				C236.16,237.965,241.033,241.777,245.859,237.182z"/>
		</g>
		<g>
			<g>
				<path style="fill:#213059;" d="M360.608,396.478l1.304,14.87c0,0,10.826,10.435,17.478,6.587
					c6.652-3.848,10.938-11.525,10.938-11.525l-17.916-18.279L360.608,396.478z"/>
			</g>
			<g>
				<path style="fill:#255C99;" d="M397.782,379.783c0,0-5.217,18.457-21.652,18C376.13,397.783,380.63,373.913,397.782,379.783z"/>
			</g>
			<g>
				<path style="fill:#213059;" d="M392.173,377.957l5.609,9.391l13.141,12.913l-12.62,14.185l-12.717-12.815l-9.457-9.293
					C376.13,392.337,379.391,375.707,392.173,377.957z"/>
			</g>
			<g>
				<path style="fill:#F5BC54;" d="M393.608,409.686c0,0,1.304-1.077,2.087-3.23l-1.565-1.489c0,0,3.652-9.598,14.152-8.871
					l5.087,4.882l8.935,4.696l11.733,0.753c3.434,0.22,6.49,2.255,8.017,5.339l0,0c0.686,1.385,0.798,2.978,0.315,4.447
					c-0.838,2.552-2.97,6.52-8.392,10.201c-7.45,5.057-19.37,3.326-19.37,3.326l-16.304-8.674L393.608,409.686z"/>
			</g>
			<g>
				<path style="fill:#EA8475;" d="M395.695,406.457l4.882,6.954c0.248,0.353-0.176,0.788-0.535,0.549l-6.434-4.274L395.695,406.457
					z"/>
			</g>
			<g>
				<path style="fill:#213059;" d="M332.173,224.956c0,0-10.191,20.022-38.087,27.261c-20.609,5.348-32.87-6.13-32.87-6.13
					S311.956,212.304,332.173,224.956z"/>
			</g>
			<g>
				<path style="fill:#2178BF;" d="M363.541,321.02l-16.499-59.575c-1.38-4.982-3.631-9.681-6.649-13.878l-17.48-24.307
					l-49.565,17.217c0,0-3.913,21.261,10.957,36.913l51.688,67.767l18.616,59.016c0,0,5.352,4.113,15.913-6.391
					c1.138-1.132,2.269-2.109,3.357-2.952l2.251,2.952c0,0,3.783-1.174,7.304-8.87c3.522-7.696,8.609-10.565,14.348-9.13
					L363.541,321.02z"/>
			</g>
			<g>
				<path style="fill:#255C99;" d="M326.724,228.562l-3.812-5.301l-49.565,17.217c0,0-1.264,6.899,0.389,15.727
					c2.773-0.271,16.045-1.982,27.915-13.151C312.658,232.697,319.717,229.065,326.724,228.562z"/>
			</g>
			<g>
				<path style="fill:#255C99;" d="M366.852,327.203c-0.172,0-0.339-0.089-0.432-0.248l-38.462-66.007
					c-0.124-0.213-0.075-0.483,0.115-0.639l3.415-2.79c0.213-0.175,0.529-0.144,0.703,0.07c0.175,0.214,0.144,0.529-0.07,0.704
					l-3.085,2.52l38.247,65.638c0.14,0.239,0.059,0.545-0.18,0.684C367.025,327.181,366.938,327.203,366.852,327.203z"/>
			</g>
			<g>
				<path style="fill:#213059;" d="M381.115,393.602c-0.153,0-0.306-0.07-0.403-0.204c-0.787-1.073-78.812-107.473-90.222-122.751
					c-11.505-15.405-12.067-31.925-12.072-32.09c-0.007-0.276,0.211-0.505,0.486-0.513c0.005,0,0.01,0,0.014,0
					c0.27,0,0.492,0.215,0.5,0.487c0.004,0.162,0.566,16.377,11.873,31.519c11.413,15.28,89.44,121.684,90.228,122.757
					c0.163,0.223,0.115,0.536-0.107,0.699C381.322,393.571,381.217,393.602,381.115,393.602z"/>
			</g>
			<g>
				<path style="fill:#213059;" d="M283.566,258.013c-0.164,0-0.324-0.08-0.42-0.228c-0.15-0.232-0.085-0.541,0.147-0.691
					c0.443-0.289,10.79-7.233,4.637-21.645c-0.108-0.254,0.01-0.548,0.264-0.656c0.255-0.109,0.548,0.01,0.656,0.264
					c6.491,15.203-4.897,22.801-5.013,22.876C283.753,257.987,283.659,258.013,283.566,258.013z"/>
			</g>
			<g>
				<path style="fill:#255C99;" d="M335.332,344.293L335.332,344.293l0.66,0.865l18.616,59.016c0,0,5.352,4.113,15.913-6.391
					c1.138-1.132,2.269-2.109,3.357-2.952L335.332,344.293z"/>
			</g>
			<g>
				<path style="fill:#213059;" d="M376.129,398.283c-0.15,0-0.299-0.067-0.397-0.196l-40.798-53.489
					c-0.168-0.22-0.125-0.534,0.094-0.701c0.22-0.168,0.532-0.126,0.701,0.094l40.798,53.489c0.168,0.22,0.125,0.534-0.094,0.701
					C376.342,398.249,376.236,398.283,376.129,398.283z"/>
			</g>
			<g>
				<path style="fill:#F5BC54;" d="M411.863,421.415l-13.56-6.97l-12-12.163c-7.696,0.065-13.239,5.348-13.239,5.348l0.814,2.251
					l0,0l-2.359,1.364h0l-1.324-1.397c-6.457,0-8.716-3.437-8.716-3.437s-1.589,0.177-1.523,1.611
					c0.066,1.442-0.674,9.547-1.068,13.708c-0.14,1.476,0.707,2.857,2.086,3.403c6.185,2.445,23.344,8.892,34.46,9.788
					c11.321,0.912,19.174-5.181,19.174-5.181v-3.827C414.608,424.017,413.548,422.281,411.863,421.415z"/>
			</g>
			<g>
				<path style="fill:#EA8475;" d="M371.519,411.245l2.359-1.364l2.636,5.948c0.213,0.482-0.426,0.88-0.764,0.476L371.519,411.245z"
					/>
			</g>
			<g>
				<path style="fill:#EA8475;" d="M388.912,420.848c-0.098,0-0.196-0.028-0.282-0.087c-0.227-0.156-0.286-0.468-0.131-0.695
					c3.474-5.077,9.474-6.074,9.727-6.114c0.267-0.042,0.528,0.143,0.571,0.416c0.044,0.273-0.143,0.528-0.415,0.572
					c-0.058,0.009-5.833,0.978-9.057,5.69C389.227,420.772,389.071,420.848,388.912,420.848z"/>
			</g>
			<g>
				<path style="fill:#EA8475;" d="M414.608,430.24c-0.276,0-0.5-0.224-0.5-0.5v-3.827c0-1.716-0.948-3.269-2.474-4.053l-13.56-6.97
					c-0.047-0.024-0.09-0.056-0.127-0.093l-4.696-4.76c-0.193-0.197-0.191-0.514,0.005-0.707c0.197-0.194,0.513-0.192,0.708,0.004
					l4.639,4.703l13.488,6.934c1.86,0.956,3.017,2.85,3.017,4.941v3.827C415.108,430.016,414.884,430.24,414.608,430.24z"/>
			</g>
			<g>
				<path style="fill:#EA8475;" d="M414.282,413.539c-0.077,0-0.156-0.018-0.229-0.056c-0.245-0.127-0.342-0.429-0.215-0.674
					c3.128-6.061,8.117-7.556,8.327-7.616c0.268-0.08,0.541,0.076,0.618,0.342c0.077,0.265-0.075,0.542-0.341,0.619
					c-0.047,0.014-4.795,1.454-7.716,7.114C414.637,413.441,414.462,413.539,414.282,413.539z"/>
			</g>
			<g>
				<path style="fill:#255C99;" d="M386.084,402.578c-0.126,0-0.252-0.047-0.35-0.142l-6.484-6.331
					c-0.197-0.192-0.201-0.509-0.008-0.707c0.193-0.196,0.51-0.201,0.707-0.008l6.484,6.331c0.197,0.192,0.201,0.509,0.008,0.707
					C386.343,402.528,386.214,402.578,386.084,402.578z"/>
			</g>
		</g>
		<g>
			<g>
				<g>
					<polygon style="fill:#EA8475;" points="339.451,198.609 320.434,213.217 310.431,195.307 331.402,189.212 					"/>
				</g>
				<g>
					<path style="fill:#FFDDBB;" d="M331.402,189.212l21.07-9.451l17.744,6.125l-8.01,9.625l-10.565-2.343
						c0,0-2.446,4.984-10.614,5.496C333.345,199.145,331.402,189.212,331.402,189.212z"/>
				</g>
				<g>
					<path style="fill:#FFE6F8;" d="M366.217,196.098l9.13-14.706v-3.053c0-0.298-0.288-0.512-0.573-0.426l-34.579,10.457v2.674
						l26.022,7.565V196.098z"/>
				</g>
				<g>
					<polygon style="fill:#F8B3FF;" points="365.972,192.625 359.576,192.625 366.217,196.098 					"/>
				</g>
				<g>
					<path style="fill:#F8B3FF;" d="M348.168,185.958c0,0,6.005,3.546,10.07,0.729c4.066-2.817-0.259,0.053-0.259,0.053
						l-3.905-2.568L348.168,185.958z"/>
				</g>
				<g>
					<polygon style="fill:#FF4D4D;" points="375.347,181.391 375.344,178.29 365.972,192.625 366.217,196.098 					"/>
				</g>
				<g>
					<g>
						<path style="fill:#FFDDBB;" d="M352.472,179.761l7.826,5.723c-3.766,3.962-10.908-2.137-10.908-2.137L352.472,179.761z"/>
					</g>
					<g>
						<path style="fill:#EA8475;" d="M357.069,187.209c-3.677,0-7.697-3.386-7.922-3.578c-0.158-0.134-0.177-0.371-0.042-0.529
							c0.135-0.157,0.371-0.177,0.528-0.042c0.067,0.057,6.521,5.49,10.081,2.46l-6.159-4.503c-0.167-0.122-0.203-0.357-0.081-0.524
							c0.122-0.168,0.356-0.203,0.524-0.082l6.522,4.769c0.087,0.064,0.142,0.162,0.151,0.269c0.01,0.107-0.027,0.214-0.101,0.292
							C359.556,186.809,358.333,187.209,357.069,187.209z"/>
					</g>
					<g>
						<path style="fill:#EA8475;" d="M351.274,185.087h-3.106c-0.207,0-0.375-0.168-0.375-0.375c0-0.207,0.168-0.375,0.375-0.375
							h3.106c0.207,0,0.375,0.168,0.375,0.375C351.649,184.919,351.481,185.087,351.274,185.087z"/>
					</g>
				</g>
				<g>
					<path style="fill:#B375DB;" d="M365.108,190.016c-0.076,0-0.152-0.023-0.219-0.07c-0.168-0.121-0.207-0.355-0.086-0.523
						l6.64-9.246c0.121-0.169,0.357-0.205,0.523-0.086c0.168,0.121,0.207,0.355,0.086,0.523l-6.64,9.246
						C365.339,189.962,365.224,190.016,365.108,190.016z"/>
				</g>
				<g>
					<path style="fill:#B375DB;" d="M361.162,190.016c-0.08,0-0.16-0.025-0.229-0.077c-0.164-0.126-0.195-0.362-0.069-0.526
						l5.814-7.584c0.127-0.165,0.362-0.195,0.526-0.07c0.164,0.126,0.195,0.362,0.069,0.526l-5.814,7.584
						C361.385,189.966,361.274,190.016,361.162,190.016z"/>
				</g>
			</g>
		</g>
		<g>
			<g>
				<path style="fill:#F5BC54;" d="M313.638,147.478l8.459,4.514c7.809,4.167,11.301,13.491,8.151,21.763l-9.292,24.397
					l-22.435-6.065L313.638,147.478z"/>
			</g>
			<g>
				<path style="fill:#F5BC54;" d="M281.641,129.394l31.045,17.515c7.91,4.463,12.509,13.113,11.785,22.167l-3.219,40.229
					l10.921,15.652c0,0-9.891-2.523-27,9c-18.913,12.738-31.533,14.283-43.957,12.131l-2.217-36.783c0,0,3.506-48,8.428-66.326
					C272.01,125.92,281.641,129.394,281.641,129.394z"/>
			</g>
			<g>
				<path style="fill:#EA8475;" d="M321.252,209.304l0.999-12.487l-36.632-5.644C293.115,210.487,321.252,209.304,321.252,209.304z"
					/>
			</g>
			<g>
				<path style="fill:#EA8475;" d="M323.058,187.24c-0.014,0-0.027-0.001-0.041-0.001c-0.275-0.022-0.48-0.263-0.458-0.539
					l1.413-17.664c0.283-3.529-0.271-7.128-1.604-10.406c-0.104-0.256,0.019-0.548,0.274-0.652c0.254-0.105,0.547,0.02,0.651,0.275
					c1.392,3.423,1.971,7.18,1.675,10.863l-1.413,17.664C323.535,187.042,323.316,187.24,323.058,187.24z"/>
			</g>
		</g>
		<g>
			<path style="fill:none;stroke:#213059;stroke-width:0.25;stroke-linecap:round;stroke-linejoin:round;stroke-miterlimit:10;" d="
				M344.206,104.826"/>
		</g>
		<g>
			<g>
				<path style="fill:#213059;" d="M279.086,255.701v19.914c0,2.549-1.226,4.941-3.295,6.43l-7.269,5.229
					c-2.606,1.874-6.084,1.994-8.813,0.303l-25.879-16.039c-2.436-1.509-3.917-4.171-3.917-7.037v-18.157
					c0-2.622,1.398-5.067,3.701-6.321c2.055-1.119,5.387-2.321,9.563-2.49c1.626-0.066,3.247,0.265,4.717,0.961
					c5.829,2.761,23.17,10.982,29.124,13.888C278.287,253.001,279.086,254.288,279.086,255.701z"/>
			</g>
			<g>
				<path style="fill:#255C99;" d="M262.325,289.108c-0.276,0-0.5-0.224-0.5-0.5v-15.472c0-0.276,0.224-0.5,0.5-0.5
					c0.276,0,0.5,0.224,0.5,0.5v15.472C262.825,288.884,262.601,289.108,262.325,289.108z"/>
			</g>
			<g>
				<path style="fill:#255C99;" d="M245.866,279.496c-0.091,0-0.183-0.025-0.263-0.075l-5.894-3.653
					c-0.147-0.091-0.237-0.252-0.237-0.425v-12.198c0-0.276,0.224-0.5,0.5-0.5c0.276,0,0.5,0.224,0.5,0.5v11.92l4.894,3.033v-12.935
					c0-0.276,0.224-0.5,0.5-0.5c0.276,0,0.5,0.224,0.5,0.5v13.833c0,0.182-0.098,0.349-0.257,0.436
					C246.033,279.476,245.949,279.496,245.866,279.496z"/>
			</g>
			<g>
				<path style="fill:#255C99;" d="M271.879,285.233c-0.207,0-0.375-0.168-0.375-0.375v-30.847c0-0.207,0.168-0.375,0.375-0.375
					c0.207,0,0.375,0.168,0.375,0.375v30.847C272.254,285.065,272.087,285.233,271.879,285.233z"/>
			</g>
			<g>
				<path style="fill:#F5BC54;" d="M228.738,247.634c0,2.045,0,5.334,0,7.634c0,1.62,0.883,3.107,2.303,3.885l28.519,15.633
					c1.978,1.084,4.395-0.347,4.395-2.603l0.149-9.72c0-3.562,3.405-7.328,9.065-8.323c1.789-0.314,3.765-0.245,5.739,0.429
					c0,0,0.667-1.342-1.42-2.581l-28.736-13.806c-1.795-0.865-3.757-1.32-5.75-1.305c-3.769,0.028-9.656,0.864-12.719,5.384
					C229.218,243.836,228.738,245.733,228.738,247.634z"/>
			</g>
			<g>
				<path style="fill:#EA8475;" d="M262.325,257.054c-0.072,0-0.145-0.016-0.214-0.048l-29.348-13.891
					c-0.249-0.118-0.356-0.417-0.238-0.666c0.118-0.25,0.419-0.355,0.666-0.238l29.348,13.891c0.25,0.118,0.357,0.416,0.238,0.666
					C262.691,256.949,262.511,257.054,262.325,257.054z"/>
			</g>
			<g>
				<path style="fill:#255C99;" d="M245.448,261.37c-0.345,1.501-1.584,2.329-2.768,1.849c-1.184-0.479-1.864-2.085-1.519-3.585
					c0.345-1.501,1.585-2.329,2.768-1.849C245.113,258.264,245.793,259.869,245.448,261.37z"/>
			</g>
			<g>
				<path style="fill:#255C99;" d="M277.488,255.087c38.446-74.935,41.425-104.794,41.425-104.794l-0.689-0.368l0,0
					c0.875-0.39,1.885-0.335,2.713,0.148l2.932,1.711c0.919,0.536,1.406,1.581,1.222,2.629
					c-1.556,8.838-10.339,50.542-45.985,111.523c-0.446,0.762-1.617,0.446-1.617-0.436V255.087z"/>
			</g>
		</g>
		<g>
			<g>
				<polygon style="fill:#FF4D4D;" points="366.217,196.098 366.217,200.761 316.021,205.043 307.814,192.087 307.814,187.196 
					349.195,187.196 				"/>
			</g>
			<g>
				<polygon style="fill:#FFFFFF;" points="307.814,187.196 307.814,192.087 349.391,192.087 366.217,200.761 366.217,196.098 
					349.195,187.196 				"/>
			</g>
			<g>
				<path style="fill:#F8B3FF;" d="M339.202,189.331h-31.388c-0.207,0-0.375-0.168-0.375-0.375c0-0.207,0.168-0.375,0.375-0.375
					h31.388c0.207,0,0.375,0.168,0.375,0.375C339.577,189.163,339.409,189.331,339.202,189.331z"/>
			</g>
			<g>
				<path style="fill:#F8B3FF;" d="M324.706,191.353h-16.892c-0.207,0-0.375-0.168-0.375-0.375c0-0.207,0.168-0.375,0.375-0.375
					h16.892c0.207,0,0.375,0.168,0.375,0.375C325.081,191.185,324.913,191.353,324.706,191.353z"/>
			</g>
			<g>
				<path style="fill:#F8B3FF;" d="M366.216,197.766c-0.039,0-0.079-0.009-0.116-0.028l-8.193-4.279
					c-0.122-0.064-0.169-0.215-0.105-0.337c0.065-0.123,0.217-0.167,0.338-0.106l8.193,4.279c0.122,0.064,0.169,0.215,0.105,0.337
					C366.393,197.718,366.306,197.766,366.216,197.766z"/>
			</g>
			<g>
				<path style="fill:#F8B3FF;" d="M366.216,199.576c-0.04,0-0.08-0.009-0.117-0.029l-13.647-7.239
					c-0.122-0.064-0.168-0.216-0.103-0.338c0.065-0.122,0.218-0.168,0.338-0.104l13.646,7.239c0.122,0.064,0.168,0.216,0.104,0.338
					C366.392,199.528,366.305,199.576,366.216,199.576z"/>
			</g>
			<g>
				<path style="fill:#F8B3FF;" d="M349.195,191.897c-0.138,0-0.25-0.112-0.25-0.25v-4.451c0-0.138,0.112-0.25,0.25-0.25
					c0.138,0,0.25,0.112,0.25,0.25v4.451C349.445,191.785,349.333,191.897,349.195,191.897z"/>
			</g>
			<g>
				<path style="fill:#B375DB;" d="M366.216,196.348c-0.039,0-0.079-0.009-0.116-0.028l-17.021-8.902
					c-0.122-0.064-0.169-0.215-0.105-0.337c0.064-0.122,0.216-0.168,0.338-0.106l17.022,8.902c0.122,0.064,0.169,0.215,0.105,0.337
					C366.393,196.299,366.306,196.348,366.216,196.348z"/>
			</g>
		</g>
		<g>
			<g>
				<g>
					<path style="fill:#213059;" d="M288.738,177.739c0,0-3.522,5.446-11.087,8.478c-8.949,3.587-23.804,5.42-32.217-3.783
						c0,0,3.788-5.626,11.706-10.206C268.977,165.38,285.999,168.12,288.738,177.739z"/>
				</g>
				<g>
					<path style="fill:#FFDDBB;" d="M284.466,148.885l-6.293,48.681l35.755-0.747l41.59,4.856c0,0,0.404,1.39-0.672,2.368
						c-0.788,0.716-2.846,1.253-5.211,1.154c0,0,0.18,1.688-1.883,2.446l-5.21,1.485l-23.869,0.439l-3.712,0.72l-45.639,8.849
						c-8.928,1.731-17.017-5.594-16.178-14.649l5.171-55.833L284.466,148.885z"/>
				</g>
				<g>
					<path style="fill:#EA8475;" d="M254.893,185.596c5.084-3.161,13.446-6.61,25.594-5.934l6.028-30.759l-28.201-0.251
						L254.893,185.596z"/>
				</g>
				<g>
					<path style="fill:#EA8475;" d="M342.944,205.734l-5.983-0.884c-0.205-0.031-0.347-0.221-0.316-0.426
						c0.031-0.204,0.213-0.343,0.426-0.316l5.92,0.88l6.637-0.167c0.207,0.023,0.379,0.159,0.384,0.366
						c0.005,0.207-0.159,0.379-0.366,0.384L342.944,205.734z"/>
				</g>
				<g>
					<g>
						<path style="fill:#FFDDBB;" d="M322.553,200.467l15.866-3.908c0.799-0.197,1.055-1.206,0.446-1.759l0,0
							c-1.002-0.911-2.301-1.428-3.655-1.454l-8.911-0.175c-2.468-0.048-4.916,0.441-7.176,1.433l-6.222,2.733L322.553,200.467z"/>
					</g>
					<g>
						<path style="fill:#EA8475;" d="M319.978,200.843c-0.207,0-0.375-0.168-0.375-0.375s0.168-0.375,0.375-0.375h2.575l7.232-1.793
							c0.202-0.051,0.404,0.074,0.454,0.274c0.05,0.201-0.073,0.404-0.274,0.454l-7.322,1.804L319.978,200.843z"/>
					</g>
				</g>
				<g>
					<path style="fill:#EA8475;" d="M263.597,201.88c-0.125,0-0.25-0.046-0.348-0.14c-0.198-0.192-0.204-0.508-0.012-0.707
						c5.569-5.772,14.651-4.035,15.033-3.958c0.272,0.054,0.446,0.317,0.393,0.588c-0.055,0.27-0.315,0.447-0.588,0.393
						c-0.089-0.018-8.932-1.703-14.119,3.672C263.859,201.829,263.728,201.88,263.597,201.88z"/>
				</g>
			</g>
			<g>
				<g>
					<path style="fill:#F5BC54;" d="M252.999,147.217c0,0,5.267-20.497,20.821-20.038c13.891,0.41,15.482,14.341,15.31,23.821
						c-0.196,10.761-0.391,26.739-0.391,26.739c-2.087-1.696-11.698-6.051-23.283-2.022c-10.5,3.652-20.022,6.717-20.022,6.717
						L252.999,147.217z"/>
				</g>
				<g>
					<path style="fill:#EA8475;" d="M288.738,178.239c-0.002,0-0.004,0-0.006,0c-0.276-0.003-0.497-0.23-0.494-0.506
						c0.002-0.16,0.198-16.102,0.392-26.742c0.19-10.434-2.107-17.447-6.825-20.844c-0.225-0.161-0.275-0.474-0.114-0.698
						c0.162-0.225,0.475-0.274,0.698-0.114c5.071,3.651,7.439,10.74,7.241,21.674c-0.193,10.636-0.39,26.576-0.392,26.736
						C289.235,178.019,289.011,178.239,288.738,178.239z"/>
				</g>
			</g>
		</g>
		<g>
			<g>
				<g>
					<g>
						<polygon style="fill:#213059;" points="316.88,144.51 297.913,130.042 291.477,137.696 306.77,151.25 317.108,145.766 						
							"/>
					</g>
					<g>
						<path style="fill:#FFDDBB;" d="M303.368,121.743l-9.543,17.424c0,0,6.261,15.746,14.136,16.039
							c4.986,0.186,5.332-3.87,5.332-7.387v-13.108L303.368,121.743z"/>
					</g>
					<g>
						<path style="fill:#EA8475;" d="M303.607,123.353l0.253,7.856c0.206,6.406,3.797,12.221,9.432,15.274h0v-4.643v-7.928
							L303.607,123.353z"/>
					</g>
				</g>
				<g>
					<path style="fill:#FFDDBB;" d="M354.926,105.724c-1.351-11.976-11.336-21.436-23.369-22.118
						c-12.102-0.686-22.334,7.153-25.499,17.925l-0.006-0.003l-0.11,0.388c-0.007,0.025-0.014,0.05-0.021,0.075l-1.406,4.953
						c-1.515,5.336-1.854,10.943-0.908,16.408c1.444,8.347,5.583,19.002,17.12,22.217c20.886,5.821,23.478-14.674,23.478-14.674
						l5.285-6.534l-0.006-0.003C353.551,119.357,355.722,112.772,354.926,105.724z"/>
				</g>
				<g>
					<path style="fill:#213059;" d="M358.391,95.924c-3.815-16.337-31.207-22.109-40.648-12.359c0,0-14.306-3.717-15.781,14.12
						l6.066,10.615l0,0c-0.147,1.247,0.725,2.385,1.968,2.567l0,0c0.458,0.067,0.882-0.256,0.938-0.716l0.801-6.591l7.239-8.932
						l-0.691-6.432l2.674,6.163c0,0,33.543-4.179,33.63,19.237C354.586,113.595,361.059,107.351,358.391,95.924z"/>
				</g>
				<g>
					<path style="fill:#FFDDBB;" d="M308.279,105.697c1.669,6.059-0.895,12.049-5.727,13.38c-4.832,1.331-10.101-2.502-11.77-8.561
						c-1.669-6.059,0.895-12.049,5.727-13.381C301.34,95.805,306.61,99.638,308.279,105.697z"/>
				</g>
				<g>
					<g>
						<g>
							<path style="fill:#EA8475;" d="M320.325,122.428c0,2.438-1.976,4.414-4.414,4.414c-2.438,0-4.414-1.976-4.414-4.414
								c0-2.438,1.976-4.414,4.414-4.414C318.348,118.014,320.325,119.99,320.325,122.428z"/>
						</g>
						<g>
							<path style="fill:#213059;" d="M329.79,124.027c-0.677,0.993-2.031,1.25-3.024,0.573c-0.993-0.677-1.25-2.031-0.573-3.024
								c0.677-0.993,2.031-1.25,3.024-0.573C330.21,121.68,330.467,123.034,329.79,124.027z"/>
						</g>
						<g>
							<path style="fill:#213059;" d="M343.361,131.281c-0.622,0.978-1.766,1.365-2.555,0.863c-0.79-0.502-0.926-1.702-0.304-2.68
								c0.622-0.978,1.766-1.365,2.556-0.863C343.846,129.103,343.982,130.303,343.361,131.281z"/>
						</g>
						<g>
							<path style="fill:#EA8475;" d="M334.313,136.891c-0.303,0-0.62-0.046-0.945-0.139c-1.849-0.528-3.656-2.461-4.396-4.699
								c-0.13-0.393,0.083-0.817,0.477-0.947c0.392-0.132,0.817,0.083,0.947,0.477c0.661,2.001,2.203,3.391,3.384,3.728
								c0.355,0.101,0.854,0.158,1.215-0.144c0.909-0.757,1.359-5.495,1.255-9.451c-0.011-0.414,0.316-0.758,0.73-0.769
								c0.007,0,0.014,0,0.02,0c0.405,0,0.739,0.323,0.75,0.73c0.039,1.495,0.137,9.033-1.794,10.643
								C335.501,136.698,334.936,136.891,334.313,136.891z"/>
						</g>
						<g>
							<path style="fill:#EA8475;" d="M326.591,138.853c-0.983,0-3.089-0.201-4.813-1.74c-1.678-1.497-2.528-3.837-2.528-6.953
								c0-0.276,0.224-0.5,0.5-0.5c0.276,0,0.5,0.224,0.5,0.5c0,2.814,0.735,4.899,2.186,6.199c1.944,1.743,4.571,1.479,4.596,1.476
								c0.265-0.027,0.521,0.167,0.552,0.441c0.031,0.274-0.166,0.521-0.44,0.552C327.113,138.832,326.911,138.853,326.591,138.853z
								"/>
						</g>
						<g>
							<path style="fill:#213059;" d="M327.501,109.93c2.066,0.008,7.405,0.619,8.42,6.615c0,0-3.246-2.18-9.005-2.88
								c-1.428-0.174-1.784-2.176-0.758-3.185l0,0C326.518,110.127,326.997,109.928,327.501,109.93z"/>
						</g>
						<g>
							<path style="fill:#213059;" d="M342.26,120.497c0,0,2.259,1.904,3.664,5.09c0.261,0.592,1.055,0.743,1.669,0.535l0,0
								c0.92-0.312,1.425-1.508,1-2.382C347.773,122.052,345.882,121.001,342.26,120.497z"/>
						</g>
						<g>
							<path style="fill:#EA8475;" d="M304.177,114.326c-0.003,0-0.006,0-0.009,0c-0.276-0.005-0.496-0.233-0.491-0.509
								c0.06-3.304-1.729-6.554-4.074-7.4c-1.471-0.531-2.875-0.025-4.06,1.458c-0.173,0.216-0.486,0.251-0.703,0.079
								c-0.216-0.172-0.251-0.487-0.078-0.703c1.457-1.824,3.296-2.455,5.181-1.774c2.769,0.999,4.804,4.592,4.734,8.359
								C304.672,114.108,304.45,114.326,304.177,114.326z"/>
						</g>
						<g>
							<path style="fill:#EA8475;" d="M300.036,113.543c-0.248,0-0.463-0.185-0.495-0.438c-0.176-1.388,0.103-2.454,0.825-3.166
								c1.136-1.122,2.921-0.887,2.998-0.875c0.272,0.038,0.463,0.29,0.425,0.563c-0.038,0.273-0.295,0.465-0.561,0.428
								c-0.015-0.002-1.382-0.175-2.163,0.6c-0.486,0.483-0.665,1.266-0.531,2.326c0.034,0.274-0.159,0.524-0.434,0.559
								C300.078,113.542,300.057,113.543,300.036,113.543z"/>
						</g>
						<g>
							<path style="fill:#EA8475;" d="M340.657,137.108c0,0.741,0.182,1.434,0.483,2.06c1.528-2.456,2.33-4.958,2.723-6.559
								C342,133.264,340.657,135.021,340.657,137.108z"/>
						</g>
						<g>
							<g>
								<path style="fill:#213059;" d="M339.974,128.452c-0.194,0-0.38-0.115-0.461-0.305l-0.095-0.224
									c-0.608-1.439-2.046-2.357-3.629-2.308c-0.274,0.029-0.508-0.205-0.519-0.48c-0.01-0.276,0.205-0.508,0.482-0.519
									c2.004-0.079,3.817,1.098,4.588,2.917l0.095,0.224c0.107,0.254-0.012,0.548-0.267,0.655
									C340.105,128.439,340.04,128.452,339.974,128.452z"/>
							</g>
							<g>
								<path style="fill:#213059;" d="M317.743,111.923c-0.085,0-0.171-0.029-0.241-0.088l-10.271-8.63
									c-0.158-0.133-0.179-0.37-0.046-0.528c0.134-0.159,0.371-0.178,0.528-0.046l10.271,8.63c0.158,0.133,0.179,0.37,0.046,0.528
									C317.956,111.878,317.849,111.923,317.743,111.923z"/>
							</g>
							<g>
								<path style="fill:#213059;" d="M350.676,135.382c-0.07,0-0.14-0.019-0.203-0.06l-6.21-3.996
									c-0.174-0.112-0.225-0.344-0.112-0.519c0.112-0.174,0.344-0.224,0.519-0.112l6.21,3.996
									c0.174,0.112,0.225,0.344,0.112,0.519C350.921,135.321,350.799,135.382,350.676,135.382z"/>
							</g>
							<g>
								<path style="fill:#F5BC54;" d="M325.79,131.287c-2.911,0-5.812-1.056-8.072-3.192c-4.747-4.486-4.899-12.063-0.338-16.89
									c4.561-4.825,12.135-5.103,16.883-0.617c2.301,2.174,3.603,5.13,3.665,8.322c0.063,3.188-1.118,6.231-3.327,8.568
									C332.211,130.007,328.994,131.287,325.79,131.287z M326.19,108.396c-2.939,0-5.891,1.175-8.084,3.496
									c-4.183,4.426-4.049,11.369,0.299,15.477c4.346,4.107,11.285,3.849,15.469-0.577c2.027-2.145,3.112-4.937,3.055-7.862
									c-0.058-2.921-1.249-5.626-3.354-7.615C331.507,109.362,328.854,108.396,326.19,108.396z"/>
							</g>
							<g>
								<path style="fill:#F5BC54;" d="M342.33,140.141c-1.442,0-2.706-0.447-3.668-1.317c-2.808-2.541-2.05-7.971,1.688-12.104l0,0
									c3.741-4.132,9.067-5.424,11.877-2.883c1.39,1.258,1.961,3.23,1.61,5.554c-0.341,2.249-1.512,4.575-3.299,6.549
									c-1.788,1.975-3.985,3.372-6.189,3.934C343.648,140.053,342.971,140.141,342.33,140.141z M341.092,127.391
									c-3.369,3.724-4.158,8.52-1.759,10.691c1.133,1.026,2.826,1.318,4.769,0.822c2.016-0.514,4.038-1.805,5.694-3.636
									c1.657-1.831,2.741-3.971,3.052-6.028c0.3-1.981-0.159-3.638-1.293-4.663C349.158,122.407,344.462,123.667,341.092,127.391
									L341.092,127.391z"/>
							</g>
						</g>
					</g>
				</g>
			</g>
			<g>
				<g>
					<path style="fill:#EA8475;" d="M299.53,155.708c0,0,3.957,9.091,11.966,3.063l-2.41-8.357l-2.316,0.837l-2.432-3.022
						L299.53,155.708z"/>
				</g>
				<g>
					<path style="fill:#FFFFFF;" d="M318.438,150.039l-1.015-4.844c-0.147-0.703-0.972-1.02-1.552-0.596l-8.741,5.487v0
						c-5.366-4.937-8.608-11.762-9.045-19.041l-0.047-0.776c-0.267-0.64-1.007-0.937-1.642-0.657l-6.364,4.515
						c0,0-1.964,16.972,8.469,29.865c0.662,0.818,1.957,0.673,2.425-0.269l6.204-12.473l5.619,11.903
						c0.345,0.731,1.368,0.778,1.768,0.076C316.046,160.546,318.798,154.958,318.438,150.039z"/>
				</g>
				<g>
					<path style="fill:#F8B3FF;" d="M318.437,150.414c-0.174,0-0.33-0.121-0.367-0.298l-1.015-4.844
						c-0.042-0.203,0.088-0.401,0.29-0.444c0.207-0.04,0.402,0.088,0.444,0.291l1.015,4.844c0.042,0.203-0.088,0.401-0.29,0.444
						C318.488,150.412,318.462,150.414,318.437,150.414z"/>
				</g>
				<g>
					<path style="fill:#F8B3FF;" d="M290.032,134.503c-0.117,0-0.232-0.055-0.306-0.158c-0.12-0.169-0.08-0.403,0.089-0.523
						l6.363-4.515c0.465-0.214,0.908-0.223,1.315-0.06c0.406,0.163,0.722,0.474,0.891,0.878c0.079,0.191-0.012,0.411-0.202,0.49
						c-0.194,0.079-0.411-0.011-0.491-0.202c-0.09-0.216-0.259-0.383-0.476-0.47c-0.221-0.088-0.456-0.082-0.669,0.012l-6.298,4.477
						C290.183,134.48,290.107,134.503,290.032,134.503z"/>
				</g>
			</g>
		</g>
		<g>
			<g>
				<path style="fill:#FF4D4D;" d="M363.683,260.565l-9.272-0.425l1.837,19.494c0.095,1.01,0.666,1.936,1.565,2.409
					c3.671,1.929,8.069,1.929,11.74,0c0.898-0.472,1.469-1.398,1.565-2.409l1.837-19.494L363.683,260.565z"/>
			</g>
			<g>
				<path style="fill:#213059;" d="M354.594,258.866v-2.087c0-0.554,0.426-1.022,0.978-1.067c5.403-0.447,10.834-0.465,16.237-0.023
					c0.553,0.045,0.979,0.513,0.979,1.068v3.736h-18.194V258.866z"/>
			</g>
			<g>
				<path style="fill:#213059;" d="M352.335,259.202v1.281c0,0.27,0.202,0.5,0.47,0.532c7.225,0.875,14.529,0.875,21.755,0
					c0.268-0.032,0.47-0.262,0.47-0.532v-1.281c0-0.316-0.275-0.558-0.589-0.52c-7.147,0.856-14.371,0.856-21.518,0
					C352.61,258.644,352.335,258.885,352.335,259.202z"/>
			</g>
			<g>
				<path style="fill:#EA8475;" d="M355.008,266.475l0.762,8.086c5.268,0.377,10.557,0.377,15.825,0.001l0.762-8.086
					C366.583,266.928,360.783,266.928,355.008,266.475z"/>
			</g>
		</g>
	</g>
	<g>
		<g>
			<path style="fill:#FFE6F8;" d="M276.791,89.867c1.82-3.277,2.859-7.048,2.859-11.062c0-12.606-10.219-22.826-22.826-22.826
				c-12.606,0-22.826,10.219-22.826,22.826c0,12.606,10.219,22.826,22.826,22.826c5.915,0,11.305-2.251,15.36-5.942l4.899,2.668
				c0.809,0.44,1.755-0.292,1.532-1.185L276.791,89.867z"/>
		</g>
		<g>
			<path style="fill:#F8B3FF;" d="M256.825,102.006c-12.793,0-23.201-10.408-23.201-23.201c0-0.207,0.168-0.375,0.375-0.375
				c0.207,0,0.375,0.168,0.375,0.375c0,12.379,10.072,22.451,22.451,22.451c5.603,0,10.968-2.076,15.107-5.844l0.198-0.18
				l5.134,2.796c0.243,0.132,0.522,0.111,0.743-0.06c0.221-0.17,0.313-0.434,0.244-0.705l-1.859-7.448l0.071-0.129
				c1.84-3.314,2.813-7.077,2.813-10.88c0-0.207,0.168-0.375,0.375-0.375c0.207,0,0.375,0.168,0.375,0.375
				c0,3.88-0.979,7.72-2.835,11.114l1.789,7.162c0.14,0.56-0.057,1.127-0.514,1.48c-0.454,0.353-1.054,0.401-1.562,0.125
				l-4.666-2.541C267.988,99.927,262.525,102.006,256.825,102.006z"/>
		</g>
		<g>
			<path style="fill:#FF4D4D;" d="M268.509,73.819c-0.6-2.345-2.555-4.214-4.924-4.712c-2.781-0.584-5.325,0.603-6.761,2.63
				c-1.436-2.027-3.979-3.214-6.76-2.63c-2.369,0.498-4.325,2.366-4.925,4.711c-0.526,2.058-0.058,3.988,0.995,5.475h-0.012
				l8.927,8.64c0.99,0.958,2.561,0.958,3.551,0l8.926-8.64h-0.012C268.567,77.807,269.035,75.877,268.509,73.819z"/>
		</g>
	</g>
</g>
<g id="TEXTS">
	
		<text transform="matrix(0.9886 0 -0.1503 0.9886 94.0144 222.5639)" style="fill:#FFFFFF; font-family:'Roboto-Black'; font-size:79.4084px;">A-Z</text>
</g>
</svg>
